<?xml version="1.0" encoding="UTF-8"?>
<svg version="1.1" xmlns="http://www.w3.org/2000/svg" width="512" height="512">
<path d="M0 0 C0.55880859 0.40186523 1.11761719 0.80373047 1.69335938 1.21777344 C10.3732314 7.53179523 18.26927336 14.56731991 26 22 C26.54688477 22.51965332 27.09376953 23.03930664 27.65722656 23.57470703 C35.93064046 31.46189873 43.2996993 39.73573645 50 49 C50.47791992 49.66064453 50.95583984 50.32128906 51.44824219 51.00195312 C79.16000569 89.83861048 95.48881144 138.97123456 93 187 C92.9383667 188.21115479 92.9383667 188.21115479 92.87548828 189.44677734 C90.29910723 235.84632994 75.11857128 278.92747026 47 316 C52.05738726 322.04399232 57.39131199 327.7786273 62.875 333.4375 C63.73480469 334.35982422 64.59460938 335.28214844 65.48046875 336.23242188 C69.75106005 340.91552467 69.75106005 340.91552467 75.30957031 343.54370117 C77.69126156 343.54810448 77.69126156 343.54810448 81 343 C84 344.4375 84 344.4375 86 347 C85.94681549 348.93792439 85.94681549 348.93792439 85.68322754 351.16047668 C85.61108003 355.13798883 86.29480245 356.97963488 88.92321777 359.96513367 C90.28194734 361.33162487 91.66565015 362.67356646 93.06835938 363.99487305 C93.81938431 364.73757446 94.57040924 365.48027588 95.3441925 366.2454834 C97.82422188 368.68873954 100.33386249 371.09917993 102.84375 373.51171875 C104.57248778 375.20842061 106.29881582 376.90758091 108.02282715 378.60908508 C112.56148531 383.07943425 117.12385159 387.52467979 121.6942749 391.96252441 C129.01415788 399.07173922 136.31148687 406.20346271 143.58198547 413.36316872 C146.12847416 415.85949011 148.69338104 418.33574308 151.26013184 420.811203 C152.81808176 422.33777622 154.37529205 423.86510478 155.93164062 425.39331055 C156.65164749 426.07760635 157.37165436 426.76190216 158.11347961 427.4669342 C162.87778245 432.19624542 162.87778245 432.19624542 163.51042175 436.35675049 C162.94141056 439.30340891 162.33147574 440.45119826 160.26953125 442.59765625 C159.62967285 443.2745752 158.98981445 443.95149414 158.33056641 444.64892578 C157.17693604 445.81270752 157.17693604 445.81270752 156 447 C155.06782448 447.95650596 154.13604499 448.91339798 153.20458984 449.87060547 C150.59839942 452.53422534 147.96808102 455.17261422 145.32788086 457.80249023 C143.66987045 459.45507182 142.01736024 461.11302199 140.36523438 462.77148438 C139.31021689 463.82584219 138.25488986 464.87989038 137.19921875 465.93359375 C136.70653 466.42830673 136.21384125 466.92301971 135.70622253 467.432724 C132.93318503 470.18666593 131.23334325 471.76564219 127.35140991 472.50328064 C122.22232311 471.73304657 119.86814654 468.603974 116.37744141 464.94750977 C115.63839066 464.19809113 114.8993399 463.44867249 114.13789368 462.67654419 C112.5352642 461.04773839 110.93957412 459.41208231 109.35005569 457.7704792 C106.83301964 455.17226536 104.2973246 452.59367393 101.75570679 450.01951599 C95.44650013 443.62205713 89.16825572 437.19452121 82.89385986 430.76293945 C77.59292134 425.33041946 72.27830689 419.91206695 66.94340134 414.51289177 C64.44536682 411.9732322 61.9688947 409.41374886 59.49234009 406.85316467 C57.95642044 405.29500819 56.4194768 403.7378602 54.88134766 402.18188477 C54.19952927 401.46547318 53.51771088 400.74906158 52.81523132 400.01094055 C48.21143607 395.41388366 45.47287075 394.33189025 39 394 C36.5 391.8125 36.5 391.8125 35 389 C35.13631836 387.62884033 35.13631836 387.62884033 35.27539062 386.22998047 C34.8732035 381.51283895 32.42589756 379.6652388 29.09375 376.5078125 C28.49445679 375.91700897 27.89516357 375.32620544 27.27770996 374.71749878 C25.36545255 372.83875535 23.43338383 370.98197119 21.5 369.125 C20.19785512 367.8529569 18.89705671 366.57953391 17.59765625 365.3046875 C14.41382461 362.18691369 11.21206394 359.08866904 8 356 C0.78715631 360.5402462 0.78715631 360.5402462 -6.328125 365.23046875 C-40.78298933 388.30785783 -80.64214548 400.57540221 -122 402 C-123.50240234 402.061875 -123.50240234 402.061875 -125.03515625 402.125 C-181.77043443 403.32100059 -237.91944231 381.73312635 -279.10546875 342.80078125 C-280.07057504 341.86745891 -281.03541019 340.93385612 -282 340 C-282.5254541 339.50032715 -283.0509082 339.0006543 -283.59228516 338.48583984 C-291.36173974 331.08515201 -298.30564835 323.34225818 -304.70898438 314.73095703 C-305.95065637 313.06615854 -307.21564829 311.42156129 -308.484375 309.77734375 C-326.582872 285.88473656 -338.3256158 257.05293384 -345 228 C-345.22445801 227.02530762 -345.44891602 226.05061523 -345.68017578 225.04638672 C-351.63883607 197.64935388 -351.89828711 165.42465032 -346 138 C-345.80132324 137.05141113 -345.60264648 136.10282227 -345.39794922 135.12548828 C-342.26279157 120.56285712 -337.84036018 106.69732288 -332 93 C-331.65598145 92.19224121 -331.31196289 91.38448242 -330.95751953 90.55224609 C-307.90399642 37.38405083 -262.85805754 -4.082483 -209.55078125 -25.83984375 C-197.02889739 -30.77554516 -184.15275691 -34.20285734 -171 -37 C-170.1632373 -37.18079102 -169.32647461 -37.36158203 -168.46435547 -37.54785156 C-110.90435705 -49.30051209 -47.30029752 -34.04228661 0 0 Z " fill="#BFE7F3" transform="translate(349,40)"/>
<path d="M0 0 C1.04800781 0.8353125 1.04800781 0.8353125 2.1171875 1.6875 C20.10421199 16.39688891 32.12588487 38.8679993 38 61 C38.30679688 62.14082031 38.61359375 63.28164062 38.9296875 64.45703125 C46.51695307 93.75832829 40.75492049 125.75703071 26 152 C23.51489234 156.12975831 20.82795736 160.0965163 18 164 C19.60373148 168.00517396 22.42113986 170.6771098 25.4453125 173.640625 C25.97518768 174.16767029 26.50506287 174.69471558 27.05099487 175.23773193 C28.73767825 176.91325675 30.43119564 178.58167722 32.125 180.25 C33.27259388 181.38755851 34.41973461 182.52557436 35.56640625 183.6640625 C38.37238137 186.44803465 41.18450464 189.2256576 44 192 C46.49361571 190.79618552 48.68143083 189.54571278 51 188 C53.3190918 187.53491211 53.3190918 187.53491211 56 188 C58.17924403 189.75397061 59.98688885 191.42713548 61.89453125 193.44140625 C62.44558029 194.0019017 62.99662933 194.56239716 63.56437683 195.13987732 C65.32592752 196.93598745 67.06960435 198.7482986 68.8125 200.5625 C71.10600344 202.92254671 73.40619485 205.27601088 75.70703125 207.62890625 C76.26286896 208.19992569 76.81870667 208.77094513 77.39138794 209.35926819 C80.80551574 212.84831625 84.32792711 216.10583936 88.05737305 219.25805664 C90.45937106 221.41191561 92.65546076 223.71735934 94.875 226.05859375 C95.71546875 226.93837891 96.5559375 227.81816406 97.421875 228.72460938 C99.15432774 230.54762215 100.8729561 232.38386377 102.578125 234.23242188 C106.79060783 238.91517728 106.79060783 238.91517728 112.30078125 241.54370117 C114.68456143 241.54800218 114.68456143 241.54800218 118 241 C121 242.4375 121 242.4375 123 245 C122.94681549 246.93792439 122.94681549 246.93792439 122.68322754 249.16047668 C122.61108003 253.13798883 123.29480245 254.97963488 125.92321777 257.96513367 C127.28194734 259.33162487 128.66565015 260.67356646 130.06835938 261.99487305 C130.81938431 262.73757446 131.57040924 263.48027588 132.3441925 264.2454834 C134.82422188 266.68873954 137.33386249 269.09917993 139.84375 271.51171875 C141.57248778 273.20842061 143.29881582 274.90758091 145.02282715 276.60908508 C149.56148531 281.07943425 154.12385159 285.52467979 158.6942749 289.96252441 C166.01415788 297.07173922 173.31148687 304.20346271 180.58198547 311.36316872 C183.12847416 313.85949011 185.69338104 316.33574308 188.26013184 318.811203 C189.81808176 320.33777622 191.37529205 321.86510478 192.93164062 323.39331055 C193.65164749 324.07760635 194.37165436 324.76190216 195.11347961 325.4669342 C199.87778245 330.19624542 199.87778245 330.19624542 200.51042175 334.35675049 C199.94141056 337.30340891 199.33147574 338.45119826 197.26953125 340.59765625 C196.62967285 341.2745752 195.98981445 341.95149414 195.33056641 342.64892578 C194.17693604 343.81270752 194.17693604 343.81270752 193 345 C192.06782448 345.95650596 191.13604499 346.91339798 190.20458984 347.87060547 C187.59839942 350.53422534 184.96808102 353.17261422 182.32788086 355.80249023 C180.66987045 357.45507182 179.01736024 359.11302199 177.36523438 360.77148438 C176.31021689 361.82584219 175.25488986 362.87989038 174.19921875 363.93359375 C173.70653 364.42830673 173.21384125 364.92301971 172.70622253 365.432724 C169.93318503 368.18666593 168.23334325 369.76564219 164.35140991 370.50328064 C159.22232311 369.73304657 156.86814654 366.603974 153.37744141 362.94750977 C152.63839066 362.19809113 151.8993399 361.44867249 151.13789368 360.67654419 C149.5352642 359.04773839 147.93957412 357.41208231 146.35005569 355.7704792 C143.83301964 353.17226536 141.2973246 350.59367393 138.75570679 348.01951599 C132.44650013 341.62205713 126.16825572 335.19452121 119.89385986 328.76293945 C114.59292134 323.33041946 109.27830689 317.91206695 103.94340134 312.51289177 C101.44536682 309.9732322 98.9688947 307.41374886 96.49234009 304.85316467 C94.95642044 303.29500819 93.4194768 301.7378602 91.88134766 300.18188477 C91.19952927 299.46547318 90.51771088 298.74906158 89.81523132 298.01094055 C85.21143607 293.41388366 82.47287075 292.33189025 76 292 C73.5 289.8125 73.5 289.8125 72 287 C72.08580322 286.08009277 72.17160645 285.16018555 72.26000977 284.21240234 C71.89567705 279.71109734 69.47434844 277.73556963 66.33984375 274.7890625 C65.4658065 273.93131729 65.4658065 273.93131729 64.57411194 273.0562439 C62.70890136 271.23114353 60.82432853 269.42771777 58.9375 267.625 C56.48333363 265.24725653 54.03680788 262.86171375 51.58984375 260.4765625 C50.99731308 259.90216934 50.40478241 259.32777618 49.79429626 258.73597717 C46.24558078 255.2800521 42.92051721 251.72749639 39.72436523 247.94042969 C37.56959387 245.51566361 35.27036697 243.27732157 32.94140625 241.01953125 C31.62172852 239.73852539 31.62172852 239.73852539 30.27539062 238.43164062 C28.44677284 236.66621482 26.61064598 234.908538 24.76757812 233.15820312 C23.89681641 232.30806641 23.02605469 231.45792969 22.12890625 230.58203125 C21.33556885 229.82124268 20.54223145 229.0604541 19.72485352 228.27661133 C18 226 18 226 17.61303711 223.3425293 C18.13083899 220.20794944 19.79946075 219.20053925 22 217 C21.92223391 212.59856161 18.37886159 210.00170322 15.43359375 207.140625 C14.60336449 206.316763 14.60336449 206.316763 13.75636292 205.47625732 C11.99033441 203.72699536 10.21415308 201.98846356 8.4375 200.25 C7.23694559 199.064495 6.0370674 197.87830476 4.83789062 196.69140625 C1.89970905 193.78626707 -1.04762074 190.89070663 -4 188 C-8.01090969 189.54122919 -11.38341668 191.41730376 -15 193.75 C-41.17234059 210.08550783 -72.66487278 215.70896327 -103 210 C-125.61482927 204.73340589 -145.26697981 194.03844199 -162 178 C-162.86625 177.175 -163.7325 176.35 -164.625 175.5 C-165.40875 174.675 -166.1925 173.85 -167 173 C-167.87011719 172.10474609 -167.87011719 172.10474609 -168.7578125 171.19140625 C-190.69526231 147.74844518 -199.92082493 115.48876137 -199.24609375 83.91796875 C-198.23006442 57.84999233 -186.63555997 32.71936275 -170 13 C-169.11054688 11.88431641 -169.11054688 11.88431641 -168.203125 10.74609375 C-163.490944 5.0129402 -157.86420862 0.51092971 -152 -4 C-151.25363281 -4.58523437 -150.50726563 -5.17046875 -149.73828125 -5.7734375 C-135.66108643 -16.23920538 -119.94490534 -22.85765394 -103 -27 C-101.93652344 -27.26554687 -100.87304688 -27.53109375 -99.77734375 -27.8046875 C-64.6889236 -35.00990458 -27.01606979 -22.27508818 0 0 Z " fill="#EB7462" transform="translate(312,142)"/>
<path d="M0 0 C8.38020893 5.98586352 16.70594016 12.70594016 24 20 C24.09742202 21.7739871 24.13204773 23.55148556 24.140625 25.328125 C24.23972813 41.41437261 24.23972813 41.41437261 28.90234375 56.59765625 C30.4736354 60.03660416 30.68869149 62.28106594 30 66 C29.29968497 67.55498521 28.56560391 69.09488411 27.8125 70.625 C20.57671797 85.55138465 18.27414247 101.77252412 21.6875 117.875 C21.83566162 118.60170898 21.98382324 119.32841797 22.13647461 120.07714844 C23.32710331 125.08139164 24.99147263 127.58860498 29 131 C30.22158408 132.08698126 31.44292116 133.17424013 32.6640625 134.26171875 C33.98265221 135.40563472 35.30299691 136.54753054 36.625 137.6875 C37.29273437 138.26822266 37.96046875 138.84894531 38.6484375 139.44726562 C41.37484373 141.80560701 43.99399471 143.99599647 47 146 C46.855625 146.92296875 46.71125 147.8459375 46.5625 148.796875 C41.74525537 182.65139974 47.41134025 216.93955024 67.6796875 245.046875 C70.71374882 248.90840759 73.9523341 252.52799339 77.34765625 256.07421875 C79 258 79 258 79 260 C79.58007812 260.25652344 80.16015625 260.51304687 80.7578125 260.77734375 C83.20722028 262.11299643 84.86753726 263.62924308 86.875 265.5625 C109.02652921 285.51330726 138.85491065 294.82274628 168.33203125 294.24609375 C193.27981566 292.57228074 216.82719034 284.9497308 237 270 C241.05485012 271.62727937 243.84312954 274.50294951 246.89453125 277.5234375 C247.44614426 278.06602203 247.99775726 278.60860657 248.56608582 279.16763306 C249.72604491 280.3131221 250.8832449 281.46141101 252.0378418 282.61230469 C253.81178562 284.37429044 255.60353036 286.11676416 257.39648438 287.859375 C258.52197714 288.97541018 259.64636557 290.0925604 260.76953125 291.2109375 C261.3089888 291.73086273 261.84844635 292.25078796 262.4042511 292.78646851 C263.88208008 294.28271484 263.88208008 294.28271484 266 297 C265.92456055 299.27197266 265.92456055 299.27197266 265 301 C264.484375 301.474375 263.96875 301.94875 263.4375 302.4375 C261.8152673 303.92981858 261.8152673 303.92981858 261.5546875 306.21166992 C262.2113739 310.32352044 264.79249871 312.4121449 267.6875 315.17578125 C268.26459717 315.74580368 268.84169434 316.31582611 269.4362793 316.90312195 C271.27944012 318.71832825 273.13922688 320.51536974 275 322.3125 C276.25374052 323.54115923 277.50635913 324.77096439 278.7578125 326.00195312 C281.82568908 329.01474624 284.90859201 332.01136488 288 335 C256.1068263 367.67238968 202.37040949 381.47163283 158 383 C156.49759766 383.061875 156.49759766 383.061875 154.96484375 383.125 C98.22956557 384.32100059 42.08055769 362.73312635 0.89453125 323.80078125 C-0.07057504 322.86745891 -1.03541019 321.93385612 -2 321 C-2.5254541 320.50032715 -3.0509082 320.0006543 -3.59228516 319.48583984 C-11.36173974 312.08515201 -18.30564835 304.34225818 -24.70898438 295.73095703 C-25.95065637 294.06615854 -27.21564829 292.42156129 -28.484375 290.77734375 C-46.582872 266.88473656 -58.3256158 238.05293384 -65 209 C-65.22445801 208.02530762 -65.44891602 207.05061523 -65.68017578 206.04638672 C-71.63883607 178.64935388 -71.89828711 146.42465032 -66 119 C-65.80132324 118.05141113 -65.60264648 117.10282227 -65.39794922 116.12548828 C-62.26279157 101.56285712 -57.84036018 87.69732288 -52 74 C-51.65598145 73.19224121 -51.31196289 72.38448242 -50.95751953 71.55224609 C-39.19302335 44.4198626 -21.27530247 20.42805591 0 0 Z " fill="#BFE7F3" transform="translate(69,59)"/>
<path d="M0 0 C1.1446875 0.3403125 2.289375 0.680625 3.46875 1.03125 C28.09110477 9.09343696 46.43962709 25.97753296 58.46484375 48.77734375 C67.98687882 68.48708807 70.33200283 91.96140996 64 113 C63.6596875 114.1446875 63.319375 115.289375 62.96875 116.46875 C55.36461906 139.69217691 39.58002348 158.45257662 18 170 C-5.90257593 181.59629921 -31.15042355 183.51646165 -56.29296875 174.8671875 C-80.50879538 165.40641177 -98.40297091 147.79631799 -109.25 124.3125 C-118.55879313 101.24398806 -118.73861687 76.85476273 -109.6875 53.6875 C-99.35030466 30.64942137 -82.29214529 12.9815645 -59 3 C-40.12201093 -3.91573982 -19.4391823 -5.85062768 0 0 Z " fill="#BFE7F3" transform="translate(258,145)"/>
<path d="M0 0 C6.1122155 0.76226244 12.02986196 5.43828985 16 10 C19.48294112 16.01064522 22.07546433 24.10941437 21 31 C18.82421875 33.31640625 18.82421875 33.31640625 15.6875 35.5625 C14.83961914 36.1805249 14.83961914 36.1805249 13.97460938 36.81103516 C12.00096797 38.23463676 10.00435651 39.6199885 8 41 C7.20803223 41.54736816 6.41606445 42.09473633 5.60009766 42.65869141 C2.25540308 44.96437091 -1.09279373 47.26392888 -4.4621582 49.53344727 C-5.98765297 50.56137752 -7.5069695 51.5985593 -9.01879883 52.64648438 C-10.64947656 53.76052964 -12.32544317 54.80798741 -14.01171875 55.8359375 C-17.07970719 59.17516264 -16.87332444 62.35182381 -16.8125 66.75 C-16.80839111 67.58748779 -16.80428223 68.42497559 -16.80004883 69.2878418 C-16.42739821 78.47902176 -12.6236144 85.26450746 -8 93 C-7.5978125 94.09957031 -7.195625 95.19914062 -6.78125 96.33203125 C-4.77533203 99.33650926 -4.33895126 99.48541565 -0.98828125 100.2421875 C0.56638531 100.48034919 2.12555744 100.69048833 3.6875 100.875 C4.88342773 101.04902344 4.88342773 101.04902344 6.10351562 101.2265625 C8.06568773 101.50855131 10.03255414 101.75752559 12 102 C12 102.66 12 103.32 12 104 C11.05382812 104.14695312 10.10765625 104.29390625 9.1328125 104.4453125 C-14.54175267 108.35517983 -35.5764035 117.52959765 -54 133 C-54.6703125 133.51949219 -55.340625 134.03898438 -56.03125 134.57421875 C-61.53588754 138.94039716 -65.72676155 144.46542999 -70 150 C-70.58652344 150.74765625 -71.17304688 151.4953125 -71.77734375 152.265625 C-81.31263717 165.09900814 -87.96200655 179.59186709 -92 195 C-95.91170358 194.4373577 -97.803852 192.61621219 -100.625 189.9375 C-104.08983392 186.68825575 -107.59868908 183.79339536 -111.4375 181 C-116.2706903 177.17277889 -117.85696856 173.9636423 -119 168 C-119.29970703 166.80890625 -119.29970703 166.80890625 -119.60546875 165.59375 C-123.4720068 149.19340069 -119.28615178 132.01591156 -111.95703125 117.125 C-110.43664756 113.74912763 -110.36932094 111.65793855 -111 108 C-111.80969854 106.22788397 -112.62269197 104.45727253 -113.4375 102.6875 C-116.4133633 95.68114053 -116.21218173 89.28895671 -116.1875 81.75 C-116.1101196 73.35841862 -116.1101196 73.35841862 -118.88671875 65.63671875 C-121.46594686 63.3571184 -124.01512522 61.707923 -127 60 C-129.06842727 58.43048986 -131.11078682 56.82600503 -133.125 55.1875 C-134.05570312 54.47980469 -134.98640625 53.77210937 -135.9453125 53.04296875 C-136.62335938 52.36878906 -137.30140625 51.69460937 -138 51 C-138 47 -138 47 -135.5 44.37109375 C-134.34573254 43.37862365 -133.17796186 42.40172825 -132 41.4375 C-131.37134033 40.9130127 -130.74268066 40.38852539 -130.0949707 39.84814453 C-115.37683489 27.77553788 -98.972915 17.64270333 -81.8125 9.4375 C-81.11777588 9.10274658 -80.42305176 8.76799316 -79.70727539 8.4230957 C-75.81580059 6.61961348 -72.2638999 5.48408195 -68 5 C-67.67016113 5.75249023 -67.34032227 6.50498047 -67.00048828 7.28027344 C-64.23953413 11.0338772 -61.28243017 11.95521733 -56.9921875 13.515625 C-56.19330109 13.81692322 -55.39441467 14.11822144 -54.57131958 14.4286499 C-52.87480817 15.06232021 -51.1749687 15.68714084 -49.47216797 16.30371094 C-46.92121339 17.23316196 -44.38900372 18.20391743 -41.85546875 19.1796875 C-31.12621065 23.19146286 -21.45795099 25.07039647 -10 25 C-10.00773437 23.80225952 -10.00773437 23.80225952 -10.015625 22.58032227 C-9.96573177 13.54263154 -6.41870447 6.41870447 0 0 Z " fill="#76D3BD" transform="translate(209,10)"/>
<path d="M0 0 C6.36590304 5.24458586 12.13570612 11.02097322 17.9375 16.875 C18.91708237 17.85960919 19.89689837 18.843986 20.87695312 19.828125 C23.25360252 22.21648203 25.62787356 24.60715212 28 27 C30.49361571 25.79618552 32.68143083 24.54571278 35 23 C37.3190918 22.53491211 37.3190918 22.53491211 40 23 C42.17924403 24.75397061 43.98688885 26.42713548 45.89453125 28.44140625 C46.72110481 29.28214943 46.72110481 29.28214943 47.56437683 30.13987732 C49.32592752 31.93598745 51.06960435 33.7482986 52.8125 35.5625 C55.10600344 37.92254671 57.40619485 40.27601088 59.70703125 42.62890625 C60.54078781 43.48543541 60.54078781 43.48543541 61.39138794 44.35926819 C64.80551574 47.84831625 68.32792711 51.10583936 72.05737305 54.25805664 C74.45937106 56.41191561 76.65546076 58.71735934 78.875 61.05859375 C80.13570312 62.37827148 80.13570312 62.37827148 81.421875 63.72460938 C83.15432774 65.54762215 84.8729561 67.38386377 86.578125 69.23242188 C90.79060783 73.91517728 90.79060783 73.91517728 96.30078125 76.54370117 C98.68456143 76.54800218 98.68456143 76.54800218 102 76 C105 77.4375 105 77.4375 107 80 C106.94681549 81.93792439 106.94681549 81.93792439 106.68322754 84.16047668 C106.61108003 88.13798883 107.29480245 89.97963488 109.92321777 92.96513367 C111.28194734 94.33162487 112.66565015 95.67356646 114.06835938 96.99487305 C114.81938431 97.73757446 115.57040924 98.48027588 116.3441925 99.2454834 C118.82422188 101.68873954 121.33386249 104.09917993 123.84375 106.51171875 C125.57248778 108.20842061 127.29881582 109.90758091 129.02282715 111.60908508 C133.56148531 116.07943425 138.12385159 120.52467979 142.6942749 124.96252441 C150.01415788 132.07173922 157.31148687 139.20346271 164.58198547 146.36316872 C167.12847416 148.85949011 169.69338104 151.33574308 172.26013184 153.811203 C173.81808176 155.33777622 175.37529205 156.86510478 176.93164062 158.39331055 C177.65164749 159.07760635 178.37165436 159.76190216 179.11347961 160.4669342 C183.87778245 165.19624542 183.87778245 165.19624542 184.51042175 169.35675049 C183.94141056 172.30340891 183.33147574 173.45119826 181.26953125 175.59765625 C180.62967285 176.2745752 179.98981445 176.95149414 179.33056641 177.64892578 C178.56147949 178.42478027 177.79239258 179.20063477 177 180 C176.06782448 180.95650596 175.13604499 181.91339798 174.20458984 182.87060547 C171.59839942 185.53422534 168.96808102 188.17261422 166.32788086 190.80249023 C164.66987045 192.45507182 163.01736024 194.11302199 161.36523438 195.77148438 C160.31021689 196.82584219 159.25488986 197.87989038 158.19921875 198.93359375 C157.70653 199.42830673 157.21384125 199.92301971 156.70622253 200.432724 C153.93318503 203.18666593 152.23334325 204.76564219 148.35140991 205.50328064 C143.22232311 204.73304657 140.86814654 201.603974 137.37744141 197.94750977 C136.26886528 196.82338181 136.26886528 196.82338181 135.13789368 195.67654419 C133.5352642 194.04773839 131.93957412 192.41208231 130.35005569 190.7704792 C127.83301964 188.17226536 125.2973246 185.59367393 122.75570679 183.01951599 C116.44650013 176.62205713 110.16825572 170.19452121 103.89385986 163.76293945 C98.59292134 158.33041946 93.27830689 152.91206695 87.94340134 147.51289177 C85.44536682 144.9732322 82.9688947 142.41374886 80.49234009 139.85316467 C78.95642044 138.29500819 77.4194768 136.7378602 75.88134766 135.18188477 C75.19952927 134.46547318 74.51771088 133.74906158 73.81523132 133.01094055 C69.21143607 128.41388366 66.47287075 127.33189025 60 127 C57.5 124.8125 57.5 124.8125 56 122 C56.12870483 120.62013916 56.12870483 120.62013916 56.26000977 119.21240234 C55.89567705 114.71109734 53.47434844 112.73556963 50.33984375 109.7890625 C49.75715225 109.21723236 49.17446075 108.64540222 48.57411194 108.0562439 C46.70890136 106.23114353 44.82432853 104.42771777 42.9375 102.625 C40.48333363 100.24725653 38.03680788 97.86171375 35.58984375 95.4765625 C34.99731308 94.90216934 34.40478241 94.32777618 33.79429626 93.73597717 C30.24558078 90.2800521 26.92051721 86.72749639 23.72436523 82.94042969 C21.56959387 80.51566361 19.27036697 78.27732157 16.94140625 76.01953125 C16.06162109 75.16552734 15.18183594 74.31152344 14.27539062 73.43164062 C12.44677284 71.66621482 10.61064598 69.908538 8.76757812 68.15820312 C7.89681641 67.30806641 7.02605469 66.45792969 6.12890625 65.58203125 C5.33556885 64.82124268 4.54223145 64.0604541 3.72485352 63.27661133 C2 61 2 61 1.61303711 58.3425293 C2.13083899 55.20794944 3.79946075 54.20053925 6 52 C5.47697344 47.43424447 2.35741798 44.97810629 -0.78515625 41.921875 C-1.36083847 41.35043762 -1.93652069 40.77900024 -2.52964783 40.19024658 C-4.36700319 38.36966198 -6.21452132 36.55979432 -8.0625 34.75 C-9.31123138 33.51631747 -10.55928669 32.28195022 -11.80664062 31.046875 C-14.8633102 28.02325345 -17.92913526 25.00920079 -21 22 C-20.23042969 21.23300781 -19.46085937 20.46601563 -18.66796875 19.67578125 C-16.8631859 17.86571353 -15.07839332 16.03552789 -13.3125 14.1875 C-11 12 -11 12 -9 12 C-8.74476563 11.42765625 -8.48953125 10.8553125 -8.2265625 10.265625 C-6.86912841 7.75826267 -5.28025896 5.8669544 -3.375 3.75 C-2.74335938 3.04359375 -2.11171875 2.3371875 -1.4609375 1.609375 C-0.97882813 1.07828125 -0.49671875 0.5471875 0 0 Z " fill="#4B586D" transform="translate(328,307)"/>
<path d="M0 0 C1.1446875 0.3403125 2.289375 0.680625 3.46875 1.03125 C28.09110477 9.09343696 46.43962709 25.97753296 58.46484375 48.77734375 C67.98687882 68.48708807 70.33200283 91.96140996 64 113 C63.6596875 114.1446875 63.319375 115.289375 62.96875 116.46875 C55.36461906 139.69217691 39.58002348 158.45257662 18 170 C-5.90257593 181.59629921 -31.15042355 183.51646165 -56.29296875 174.8671875 C-80.50879538 165.40641177 -98.40297091 147.79631799 -109.25 124.3125 C-118.55879313 101.24398806 -118.73861687 76.85476273 -109.6875 53.6875 C-99.35030466 30.64942137 -82.29214529 12.9815645 -59 3 C-40.12201093 -3.91573982 -19.4391823 -5.85062768 0 0 Z M-79.015625 43.140625 C-91.65548725 58.05793991 -96.29579164 76.49862203 -95.20703125 95.69580078 C-93.80869945 111.258838 -86.31750687 125.52461661 -76 137 C-75.47019531 137.62261719 -74.94039062 138.24523437 -74.39453125 138.88671875 C-63.60175071 150.74545292 -46.085886 158.50303445 -30.125 159.37109375 C-11.00838551 159.82863288 6.47350359 155.55735171 21.25 142.6875 C22.85253654 141.14470146 24.4362127 139.58206194 26 138 C26.78246094 137.23945313 27.56492187 136.47890625 28.37109375 135.6953125 C42.68989762 120.96602016 46.46663927 102.78185231 46.21484375 82.95703125 C46.03360721 76.98297972 45.00408884 71.63245936 43 66 C42.6596875 65.00871094 42.319375 64.01742187 41.96875 62.99609375 C39.10637764 55.42434523 35.01635038 49.31282265 30 43 C29.35546875 42.15308594 28.7109375 41.30617188 28.046875 40.43359375 C17.73916325 28.17843264 -0.4982649 19.26016194 -16.36206055 17.77954102 C-42.12484019 16.58262571 -61.48212972 24.51978118 -79.015625 43.140625 Z " fill="#5BB6D5" transform="translate(258,145)"/>
<path d="M0 0 C4.05485012 1.62727937 6.84312954 4.50294951 9.89453125 7.5234375 C10.72195076 8.3373143 10.72195076 8.3373143 11.56608582 9.16763306 C12.72604491 10.3131221 13.8832449 11.46141101 15.0378418 12.61230469 C16.81178562 14.37429044 18.60353036 16.11676416 20.39648438 17.859375 C21.52197714 18.97541018 22.64636557 20.0925604 23.76953125 21.2109375 C24.3089888 21.73086273 24.84844635 22.25078796 25.4042511 22.78646851 C26.88208008 24.28271484 26.88208008 24.28271484 29 27 C28.92456055 29.27197266 28.92456055 29.27197266 28 31 C27.484375 31.474375 26.96875 31.94875 26.4375 32.4375 C24.8152673 33.92981858 24.8152673 33.92981858 24.5546875 36.21166992 C25.2113739 40.32352044 27.79249871 42.4121449 30.6875 45.17578125 C31.26459717 45.74580368 31.84169434 46.31582611 32.4362793 46.90312195 C34.27944012 48.71832825 36.13922688 50.51536974 38 52.3125 C39.25374052 53.54115923 40.50635913 54.77096439 41.7578125 56.00195312 C44.82568908 59.01474624 47.90859201 62.01136488 51 65 C19.23931688 97.53666209 -33.87925658 111.06136127 -78 113 C-78.67662 110.31466436 -79.34146121 107.627275 -80 104.9375 C-80.19078125 104.18533203 -80.3815625 103.43316406 -80.578125 102.65820312 C-82.01367212 96.73657126 -83.29971294 90.87342077 -80.4375 85.1875 C-78.0765596 79.51237566 -79.09956396 73.70130813 -81 68 C-81.21994392 65.23708026 -81.39610795 62.48553708 -81.54296875 59.71875 C-81.64756415 58.055893 -81.75373222 56.3931343 -81.86132812 54.73046875 C-82.02885427 52.1105665 -82.18792762 49.49154656 -82.32055664 46.86962891 C-82.45154834 44.33775661 -82.61893865 41.81048119 -82.79296875 39.28125 C-82.84024361 38.10459778 -82.84024361 38.10459778 -82.88847351 36.9041748 C-83.01666977 34.41549282 -83.01666977 34.41549282 -84 31 C-88.02290079 28.29015035 -92.40258551 27.19726004 -97.046875 25.94140625 C-99.52784157 24.74558036 -100.02769325 23.51868822 -101 21 C-100.0821875 21.13277344 -99.164375 21.26554687 -98.21875 21.40234375 C-95.67761439 21.76803238 -93.1359174 22.12983565 -90.59375 22.48828125 C-88.65436765 22.76443243 -86.71552756 23.04557569 -84.78125 23.35546875 C-56.92502501 27.57055543 -25.63645717 18.34388783 -2.95703125 2.19140625 C-1.98121094 1.46824219 -1.00539063 0.74507813 0 0 Z " fill="#F9CF6A" transform="translate(306,329)"/>
<path d="M0 0 C39.65547513 33.18111184 62.23178708 86.6195343 66.98657227 137.36083984 C67.75898908 146.56541387 68.47858933 155.76424421 68 165 C67.95891113 165.80743652 67.91782227 166.61487305 67.87548828 167.44677734 C65.2792871 214.2032823 49.96971535 258.05311665 21 295 C19.95203782 294.15356901 18.91207308 293.29723808 17.875 292.4375 C17.29492188 291.96183594 16.71484375 291.48617188 16.1171875 290.99609375 C13.16063951 288.20864721 10.60014223 285.11768819 8 282 C8.6290625 281.030625 9.258125 280.06125 9.90625 279.0625 C22.26452356 259.80398803 31.98143814 239.14068233 38 217 C38.33644531 215.79730469 38.67289062 214.59460938 39.01953125 213.35546875 C43.758677 195.87542489 45.5055781 178.53832013 45.39111328 160.4543457 C45.37499147 157.43590269 45.3910911 154.41879428 45.41015625 151.40039062 C45.43011034 134.43863279 43.34662397 118.42425902 38.8125 102.0625 C38.36185181 100.41918701 38.36185181 100.41918701 37.90209961 98.74267578 C30.00338953 70.80965065 15.82411193 38.82411193 -5 18 C-4.59285026 11.74152688 -2.34575936 5.75777298 0 0 Z " fill="#5BB7D6" transform="translate(374,62)"/>
<path d="M0 0 C6.36590304 5.24458586 12.13570612 11.02097322 17.9375 16.875 C18.91708237 17.85960919 19.89689837 18.843986 20.87695312 19.828125 C23.25360252 22.21648203 25.62787356 24.60715212 28 27 C30.49361571 25.79618552 32.68143083 24.54571278 35 23 C37.3190918 22.53491211 37.3190918 22.53491211 40 23 C42.17924403 24.75397061 43.98688885 26.42713548 45.89453125 28.44140625 C46.72110481 29.28214943 46.72110481 29.28214943 47.56437683 30.13987732 C49.32592752 31.93598745 51.06960435 33.7482986 52.8125 35.5625 C55.10600331 37.92254658 57.40613446 40.27607006 59.70703125 42.62890625 C60.25851837 43.19521255 60.81000549 43.76151886 61.37820435 44.34498596 C64.92010803 47.96323786 68.5626715 51.38996021 72.4284668 54.66430664 C75.47293882 57.25189503 78.20697649 60.1487885 81 63 C76.69372744 68.14829744 72.17688069 72.95752072 67.4140625 77.68359375 C66.71227875 78.38396255 66.010495 79.08433136 65.28744507 79.80592346 C63.06898864 82.01883027 60.84706185 84.22821416 58.625 86.4375 C57.11044534 87.94703314 55.59612015 89.45679657 54.08203125 90.96679688 C50.39066901 94.64719702 46.69645931 98.32471957 43 102 C41.87389188 101.03878393 40.74834902 100.07690561 39.62304688 99.11474609 C38.99619995 98.57917084 38.36935303 98.04359558 37.72351074 97.49179077 C33.44549367 93.78893808 29.58540651 89.72593497 25.93359375 85.41015625 C23.07380662 82.12212111 20.06980933 79.05288685 16.94140625 76.01953125 C16.06162109 75.16552734 15.18183594 74.31152344 14.27539062 73.43164062 C12.44677284 71.66621482 10.61064598 69.908538 8.76757812 68.15820312 C7.89681641 67.30806641 7.02605469 66.45792969 6.12890625 65.58203125 C5.33556885 64.82124268 4.54223145 64.0604541 3.72485352 63.27661133 C2 61 2 61 1.61303711 58.3425293 C2.13083899 55.20794944 3.79946075 54.20053925 6 52 C5.47697344 47.43424447 2.35741798 44.97810629 -0.78515625 41.921875 C-1.36083847 41.35043762 -1.93652069 40.77900024 -2.52964783 40.19024658 C-4.36700319 38.36966198 -6.21452132 36.55979432 -8.0625 34.75 C-9.31123138 33.51631747 -10.55928669 32.28195022 -11.80664062 31.046875 C-14.8633102 28.02325345 -17.92913526 25.00920079 -21 22 C-20.23042969 21.23300781 -19.46085937 20.46601563 -18.66796875 19.67578125 C-16.8631859 17.86571353 -15.07839332 16.03552789 -13.3125 14.1875 C-11 12 -11 12 -9 12 C-8.74476563 11.42765625 -8.48953125 10.8553125 -8.2265625 10.265625 C-6.86912841 7.75826267 -5.28025896 5.8669544 -3.375 3.75 C-2.74335938 3.04359375 -2.11171875 2.3371875 -1.4609375 1.609375 C-0.97882813 1.07828125 -0.49671875 0.5471875 0 0 Z " fill="#4A586D" transform="translate(328,307)"/>
<path d="M0 0 C5.04345768 2.23576682 8.44365888 6.03672918 12.3125 9.875 C13.06595703 10.59558594 13.81941406 11.31617188 14.59570312 12.05859375 C15.30275391 12.75855469 16.00980469 13.45851563 16.73828125 14.1796875 C17.38837158 14.81632324 18.03846191 15.45295898 18.70825195 16.10888672 C20 18 20 18 19.80151367 20.14892578 C19 22 19 22 17.4375 23.4375 C15.8152673 24.92981858 15.8152673 24.92981858 15.5546875 27.21166992 C16.2113739 31.32352044 18.79249871 33.4121449 21.6875 36.17578125 C22.26459717 36.74580368 22.84169434 37.31582611 23.4362793 37.90312195 C25.27944012 39.71832825 27.13922688 41.51536974 29 43.3125 C30.25374052 44.54115923 31.50635913 45.77096439 32.7578125 47.00195312 C35.82568908 50.01474624 38.90859201 53.01136488 42 56 C14.82291871 83.84107342 -30.06880379 98.40538876 -68 102 C-64.19334191 95.51137825 -60.30760746 91.10196221 -54 87 C-52.515 86.01 -52.515 86.01 -51 85 C-50.45252658 82.1463493 -50.45252658 82.1463493 -50.375 78.9375 C-50.08260325 73.08260325 -50.08260325 73.08260325 -49 72 C-46.98405418 71.76572222 -44.961526 71.58663876 -42.9375 71.4375 C-41.83277344 71.35371094 -40.72804688 71.26992188 -39.58984375 71.18359375 C-38.73519531 71.12300781 -37.88054687 71.06242187 -37 71 C-36.62875 69.845 -36.2575 68.69 -35.875 67.5 C-34.13674924 62.26041556 -32.19163255 57.10294922 -30.17749023 51.96386719 C-28.66850695 48.05370446 -27.66750304 44.39077357 -26.9375 40.25 C-26.30859375 37.9296875 -26.30859375 37.9296875 -25 36 C-19.94894814 33.45783688 -14.66610298 32 -9 32 C-8.88398438 30.87980469 -8.76796875 29.75960938 -8.6484375 28.60546875 C-8.03633172 23.72902601 -6.88330207 19.0573474 -5.625 14.3125 C-5.41617188 13.48427734 -5.20734375 12.65605469 -4.9921875 11.80273438 C-3.84196715 7.42277944 -2.62333071 3.7662438 0 0 Z " fill="#BFE7F2" transform="translate(315,338)"/>
<path d="M0 0 C3.55399941 0.47272382 6.38427611 1.51323096 9.5546875 3.15234375 C10.40933594 3.59392822 11.26398438 4.0355127 12.14453125 4.49047852 C13.04558594 4.96799561 13.94664062 5.4455127 14.875 5.9375 C15.80957031 6.43113037 16.74414062 6.92476074 17.70703125 7.43334961 C25.83952737 11.79592062 33.52991659 16.58714531 41 22 C41.56122559 22.40573242 42.12245117 22.81146484 42.70068359 23.22949219 C50.9832387 29.27889965 58.56344219 35.95201909 66 43 C64.87613072 48.82368627 63.3072912 54.37992276 61.4375 60 C61.21553955 60.6710376 60.9935791 61.3420752 60.76489258 62.03344727 C59.12932926 66.87067074 59.12932926 66.87067074 58 68 C56.56890938 68.15216802 55.13231616 68.25331695 53.6953125 68.33203125 C40.98244105 69.20101553 40.98244105 69.20101553 30.875 76.1875 C29.125789 78.38277194 27.55985834 80.66775533 26 83 C24.97020578 84.45117975 23.93752326 85.90031311 22.90234375 87.34765625 C20.1906545 91.1832192 17.57670154 95.07264834 15 99 C5.3649635 98.03649635 5.3649635 98.03649635 3 96 C2.00109857 91.40889535 2.12812375 86.68838032 2 82 C1.91363281 80.89140625 1.82726562 79.7828125 1.73828125 78.640625 C1.30943872 70.8261612 3.04650608 65.63577456 6.78515625 58.77734375 C8.13431181 56.20043531 8.13431181 56.20043531 7.99609375 54.00390625 C7.00098862 51.72719669 7.00098862 51.72719669 4.4453125 49.49609375 C0.5556455 45.05573913 1.68362092 39.62553223 1.875 34.0625 C2.08624156 25.93139844 2.08624156 25.93139844 -1.42578125 18.94140625 C-4.24851858 17.23897712 -6.89206909 16.06909039 -10 15 C-12 13 -12 13 -12.1953125 10.8359375 C-12.17210937 10.02382813 -12.14890625 9.21171875 -12.125 8.375 C-12.10695313 7.55773437 -12.08890625 6.74046875 -12.0703125 5.8984375 C-12.04710937 5.27195312 -12.02390625 4.64546875 -12 4 C-8.35961445 2.01506572 -5.10704876 1.5424404 -1 1 C-0.67 0.67 -0.34 0.34 0 0 Z " fill="#F9D06B" transform="translate(308,18)"/>
<path d="M0 0 C1.73854828 1.28513622 1.73854828 1.28513622 3 3 C3.04447174 4.98064899 3.04447174 4.98064899 2.74572754 7.18782043 C2.62808669 11.17192455 3.28617405 12.97405399 5.92321777 15.96513367 C7.28194734 17.33162487 8.66565015 18.67356646 10.06835938 19.99487305 C11.19489677 21.10892517 11.19489677 21.10892517 12.3441925 22.2454834 C14.82422188 24.68873954 17.33386249 27.09917993 19.84375 29.51171875 C21.57248778 31.20842061 23.29881582 32.90758091 25.02282715 34.60908508 C29.56148531 39.07943425 34.12385159 43.52467979 38.6942749 47.96252441 C46.01415788 55.07173922 53.31148687 62.20346271 60.58198547 69.36316872 C63.12847416 71.85949011 65.69338104 74.33574308 68.26013184 76.811203 C69.81808176 78.33777622 71.37529205 79.86510478 72.93164062 81.39331055 C73.65164749 82.07760635 74.37165436 82.76190216 75.11347961 83.4669342 C79.87102537 88.18953797 79.87102537 88.18953797 80.53088379 92.33601379 C79.89717069 95.51599965 78.92560099 96.86599152 76.6875 99.1875 C76.07261719 99.84105469 75.45773437 100.49460937 74.82421875 101.16796875 C73.92123047 102.07482422 73.92123047 102.07482422 73 103 C72.53207031 103.59425781 72.06414062 104.18851562 71.58203125 104.80078125 C70 106 70 106 67.62140369 105.76516819 C64.73950566 104.92396365 63.57044206 104.06517491 61.47550964 101.95652771 C60.82074646 101.30726318 60.16598328 100.65799866 59.49137878 99.98905945 C58.7893483 99.27264786 58.08731781 98.55623627 57.36401367 97.81811523 C56.61225861 97.06694427 55.86050354 96.31577332 55.08596802 95.5418396 C52.60370293 93.056788 50.13590552 90.55786884 47.66796875 88.05859375 C45.94962923 86.33279394 44.23040441 84.60787519 42.5103302 82.88380432 C37.98546165 78.34366312 33.47273343 73.79163793 28.96240234 69.23706055 C24.35783772 64.59157907 19.74192928 59.95739998 15.12695312 55.32226562 C6.07347854 46.22589126 -2.96760558 37.11730411 -12 28 C-9.73029011 23.0597744 -5.98745709 20.07800259 -2.01953125 16.4375 C0.20452127 14.2635924 0.20452127 14.2635924 0.0546875 11.9453125 C-1.30326705 9.44064077 -2.97562404 7.81097311 -5.0625 5.875 C-6.40998507 4.61987331 -7.73152782 3.33492972 -9 2 C-9 1.34 -9 0.68 -9 0 C-5.85000502 -1.57499749 -3.36459118 -0.70833498 0 0 Z " fill="#2D3A4C" transform="translate(432,384)"/>
<path d="M0 0 C3.86010998 1.79308995 6.31437835 4.08023148 9.3125 7.125 C9.79525391 7.61419922 10.27800781 8.10339844 10.77539062 8.60742188 C14.16980479 12.07434689 17.42495613 15.64144823 20.5625 19.34375 C21.96961715 21.0525939 21.96961715 21.0525939 23.75 22.46875 C25 24 25 24 25.00390625 25.85546875 C23.54479424 28.97240452 21.39886494 30.91884799 18.9375 33.3125 C18.01839844 34.21613281 17.09929687 35.11976563 16.15234375 36.05078125 C13.87936572 38.21462988 11.53705433 40.27928685 9.16015625 42.328125 C4.73777233 46.1687132 0.61525162 50.27271295 -3.5 54.4375 C-4.22703125 55.16904297 -4.9540625 55.90058594 -5.703125 56.65429688 C-7.47109499 58.43389824 -9.23666378 60.21580918 -11 62 C-13.97816718 60.57567584 -15.97931682 59.22096735 -18.25 56.8125 C-20.74015232 54.2425351 -23.28473198 51.83113126 -26 49.5 C-29.85635518 46.17841283 -33.45257428 42.64719707 -37 39 C-35.60919475 35.86261846 -33.98977796 33.74524719 -31.56005859 31.33300781 C-30.85948334 30.63258362 -30.15890808 29.93215942 -29.43710327 29.21051025 C-28.68184357 28.46557312 -27.92658386 27.72063599 -27.1484375 26.953125 C-26.37440582 26.18192322 -25.60037415 25.41072144 -24.80288696 24.6161499 C-22.33158077 22.15603144 -19.85340817 19.70296152 -17.375 17.25 C-15.69745948 15.58249106 -14.02037055 13.91452768 -12.34375 12.24609375 C-8.23439081 8.1587763 -4.11937353 4.07722304 0 0 Z " fill="#E97361" transform="translate(408,371)"/>
<path d="M0 0 C2.1315918 -0.34008789 2.1315918 -0.34008789 5 0 C7.17924403 1.75397061 8.98688885 3.42713548 10.89453125 5.44140625 C11.44558029 6.0019017 11.99662933 6.56239716 12.56437683 7.13987732 C14.32592752 8.93598745 16.06960435 10.7482986 17.8125 12.5625 C20.10600331 14.92254658 22.40613446 17.27607006 24.70703125 19.62890625 C25.25851837 20.19521255 25.81000549 20.76151886 26.37820435 21.34498596 C29.92010803 24.96323786 33.5626715 28.38996021 37.4284668 31.66430664 C39.38554589 33.32768705 41.20321338 35.10328032 43 36.9375 C43.5775 37.52402344 44.155 38.11054688 44.75 38.71484375 C45.1625 39.13894531 45.575 39.56304687 46 40 C41.59156563 45.29012124 36.92440206 50.18808428 32 55 C28.68386118 53.55419034 26.50814272 51.75170208 23.96582031 49.19287109 C23.18531311 48.41221283 22.40480591 47.63155457 21.60064697 46.82723999 C20.76821472 45.98448517 19.93578247 45.14173035 19.078125 44.2734375 C18.21813904 43.41062164 17.35815308 42.54780579 16.47210693 41.65884399 C13.7266769 38.90221971 10.9882831 36.13872201 8.25 33.375 C6.38978217 31.50475143 4.52911054 29.63495411 2.66796875 27.765625 C-1.89329945 23.1823064 -6.44881011 18.59332522 -11 14 C-9.40786807 10.61798868 -7.65211132 8.46644384 -4.9375 5.875 C-2.08428067 3.22095 -2.08428067 3.22095 0 0 Z " fill="#2C394B" transform="translate(363,330)"/>
<path d="M0 0 C1.2684375 0.7734375 1.2684375 0.7734375 2.5625 1.5625 C3.19285156 1.86285156 3.82320313 2.16320312 4.47265625 2.47265625 C10.8312373 5.78862656 12.96604236 10.06723453 15.5625 16.5625 C15.82337402 17.18189453 16.08424805 17.80128906 16.35302734 18.43945312 C19.58424422 26.12874246 22.47295536 33.06491663 21.5625 41.5625 C20.52351563 41.22476563 19.48453125 40.88703125 18.4140625 40.5390625 C17.00529902 40.08825819 15.5964396 39.63775359 14.1875 39.1875 C13.16849609 38.85492188 13.16849609 38.85492188 12.12890625 38.515625 C1.98706969 35.29298535 -7.96154786 34.12985341 -18.5625 33.4375 C-19.80515625 33.35113281 -21.0478125 33.26476562 -22.328125 33.17578125 C-25.36423789 32.96558882 -28.40062311 32.76129367 -31.4375 32.5625 C-27.51296117 26.33245416 -23.57511806 20.1301541 -19.3125 14.125 C-18.90902344 13.54041016 -18.50554687 12.95582031 -18.08984375 12.35351562 C-15.56025364 8.78541967 -12.98230192 6.11498682 -9.4375 3.5625 C-8.52484375 2.90121094 -8.52484375 2.90121094 -7.59375 2.2265625 C-3.1448902 -0.56446747 -3.1448902 -0.56446747 0 0 Z " fill="#77D2BD" transform="translate(256.4375,80.4375)"/>
<path d="M0 0 C5.78313693 4.8032165 11.20607993 9.92373871 16.55517578 15.20507812 C17.52748263 16.16062673 18.50514744 17.11075057 19.48779297 18.05566406 C20.92035975 19.43376962 22.33550098 20.8299183 23.75 22.2265625 C24.59046875 23.04721191 25.4309375 23.86786133 26.296875 24.71337891 C28 27 28 27 27.9543457 29.07763672 C26.86831691 31.26525266 25.66808741 32.76413054 23.98046875 34.53125 C23.37009766 35.17707031 22.75972656 35.82289063 22.13085938 36.48828125 C21.48955078 37.15214844 20.84824219 37.81601562 20.1875 38.5 C19.55779297 39.16386719 18.92808594 39.82773437 18.27929688 40.51171875 C15.22948861 43.71833773 12.14915233 46.89050953 9 50 C4.80374091 48.36221955 2.01323215 45.26676818 -1.078125 42.1171875 C-1.64956238 41.54292023 -2.22099976 40.96865295 -2.80975342 40.37698364 C-4.62792945 38.5476419 -6.43901492 36.71145807 -8.25 34.875 C-9.48391329 33.63105226 -10.71828322 32.3875573 -11.953125 31.14453125 C-14.97406743 28.10157633 -17.98867092 25.05246746 -21 22 C-20.23042969 21.23300781 -19.46085937 20.46601563 -18.66796875 19.67578125 C-16.8631859 17.86571353 -15.07839332 16.03552789 -13.3125 14.1875 C-11 12 -11 12 -9 12 C-8.74476563 11.42765625 -8.48953125 10.8553125 -8.2265625 10.265625 C-6.86912841 7.75826267 -5.28025896 5.8669544 -3.375 3.75 C-2.74335938 3.04359375 -2.11171875 2.3371875 -1.4609375 1.609375 C-0.97882813 1.07828125 -0.49671875 0.5471875 0 0 Z " fill="#2D394B" transform="translate(328,307)"/>
<path d="M0 0 C3.55399941 0.47272382 6.38427611 1.51323096 9.5546875 3.15234375 C10.40933594 3.59392822 11.26398438 4.0355127 12.14453125 4.49047852 C13.04558594 4.96799561 13.94664062 5.4455127 14.875 5.9375 C15.80957031 6.43113037 16.74414062 6.92476074 17.70703125 7.43334961 C25.83952737 11.79592062 33.52991659 16.58714531 41 22 C41.56122559 22.40573242 42.12245117 22.81146484 42.70068359 23.22949219 C50.9832387 29.27889965 58.56344219 35.95201909 66 43 C64.83348574 48.92863717 63.24480642 54.38798394 61 60 C57.30463442 56.98337504 53.93322139 54.0387339 50.875 50.375 C34.1468917 30.86505551 11.62121832 16.69795879 -11 5 C-11 4.34 -11 3.68 -11 3 C-10.28972656 2.86722656 -9.57945312 2.73445313 -8.84765625 2.59765625 C-7.92855469 2.42105469 -7.00945312 2.24445312 -6.0625 2.0625 C-4.68771484 1.80146484 -4.68771484 1.80146484 -3.28515625 1.53515625 C-1.04710156 1.22285012 -1.04710156 1.22285012 0 0 Z " fill="#F1BE4D" transform="translate(308,18)"/>
<path d="M0 0 C3.21524305 1.40844718 5.32183868 3.10344786 7.75 5.625 C8.36359375 6.25664062 8.9771875 6.88828125 9.609375 7.5390625 C10.29773438 8.26222656 10.29773438 8.26222656 11 9 C-15.30835872 37.1438256 -61.651239 51.46058418 -99 55 C-97.48971487 51.81220093 -96.65649659 50.27652139 -93.34765625 48.8828125 C-92.26355469 48.63273437 -91.17945313 48.38265625 -90.0625 48.125 C-56.31268204 39.35970985 -26.09475392 23.06048021 0 0 Z " fill="#5EB8D7" transform="translate(346,385)"/>
<path d="M0 0 C3.91209308 1.59415503 6.37218086 4.13893332 9.3125 7.125 C9.79525391 7.61419922 10.27800781 8.10339844 10.77539062 8.60742188 C14.16980479 12.07434689 17.42495613 15.64144823 20.5625 19.34375 C21.96961715 21.0525939 21.96961715 21.0525939 23.75 22.46875 C25 24 25 24 25.01953125 25.82421875 C23.51208342 29.04126258 21.1736713 31.33919375 18.6875 33.8125 C18.20087891 34.32748047 17.71425781 34.84246094 17.21289062 35.37304688 C15.76171875 36.83203125 15.76171875 36.83203125 13 39 C8.76690439 38.89855449 6.34018334 35.72179787 3.578125 32.87109375 C3.07327576 32.36199966 2.56842651 31.85290558 2.04827881 31.3283844 C0.44166021 29.7050088 -1.15419822 28.071503 -2.75 26.4375 C-3.83914984 25.3332995 -4.92898605 24.22977555 -6.01953125 23.12695312 C-8.6877076 20.4257471 -11.34628291 17.71540937 -14 15 C-10.66883385 11.04625813 -7.31571444 7.18958143 -3.625 3.5625 C-2.93664062 2.88316406 -2.24828125 2.20382812 -1.5390625 1.50390625 C-1.03117187 1.00761719 -0.52328125 0.51132812 0 0 Z " fill="#D74E41" transform="translate(408,371)"/>
<path d="M0 0 C33.0252585 -0.93190441 64.56857002 3.49141401 95 17 C94.505 18.485 94.505 18.485 94 20 C83.89024085 23.71296544 77.34522934 20.4959963 68.18359375 16.30078125 C46.67409628 6.50141917 23.34626217 3.04886365 0 1 C0 0.67 0 0.34 0 0 Z " fill="#62BAD8" transform="translate(213,0)"/>
<path d="M0 0 C5.21018603 1.91954222 7.06274356 5.51420591 9.5625 10.3125 C11.60260265 14.77225928 11.8150118 17.48138307 10.5625 22.3125 C8.34084456 24.86328958 6.95420557 25.24582671 3.625 25.8125 C-0.65439065 25.11382397 -1.77273031 23.72887139 -4.4375 20.3125 C-7.13825264 15.96088516 -9.3705741 12.11949922 -9.5625 6.9375 C-7.52346612 2.17975427 -5.1436928 0.46760844 0 0 Z " fill="#59B6D6" transform="translate(455.4375,82.6875)"/>
<path d="M0 0 C2.4375 1.5625 2.4375 1.5625 4 4 C4.68896755 8.21035726 4.58302306 10.16433362 2.125 13.6875 C-3.15583875 17.59532068 -8.31766237 19.95742321 -14.9375 20.0625 C-18 19 -18 19 -20 16.875 C-21.36453355 12.95196604 -21.34125865 10.95318339 -20 7 C-17.5621435 4.84495748 -14.91386226 3.42085474 -12 2 C-11.154375 1.566875 -10.30875 1.13375 -9.4375 0.6875 C-6.10940471 -0.25119354 -3.43942709 -0.37521023 0 0 Z " fill="#59B6D6" transform="translate(337,456)"/>
<path d="M0 0 C2.375 1.0625 2.375 1.0625 4 3 C5.92510045 9.16032145 4.488216 15.13427781 2 21 C0.11414424 23.32470269 -1.09705317 24.74428264 -4 25.56640625 C-7.74893649 25.55908411 -9.49125085 25.38466399 -12.5625 23.0625 C-15.17004828 17.50728845 -13.55835299 12.23896082 -11.625 6.625 C-8.84908104 0.4325654 -6.87699564 -0.72389428 0 0 Z " fill="#59B6D6" transform="translate(484,277)"/>
<path d="M0 0 C3.773549 -0.19828172 5.96668142 -0.28357114 9.19140625 1.8125 C11.02399152 4.71409335 11.54866745 6.76176869 11.69140625 10.1875 C10.90005279 12.77738406 10.21208746 13.82109471 8.00390625 15.375 C4.89249031 16.4682002 1.97471608 16.85916902 -1.30859375 17.1875 C-1.98664063 17.26484375 -2.6646875 17.3421875 -3.36328125 17.421875 C-7.27273719 17.68742295 -9.08767958 17.34398087 -12.30859375 15.0625 C-14.30859375 12.1875 -14.30859375 12.1875 -14.93359375 9.1875 C-14.07924935 5.08664686 -12.64908057 3.67509657 -9.30859375 1.1875 C-6.15891453 0.40008019 -3.218987 0.26144057 0 0 Z " fill="#59B6D6" transform="translate(253.30859375,477.8125)"/>
<path d="M0 0 C2 2.9375 2 2.9375 2.125 6.5 C0.7766248 10.62003534 -0.28863669 11.7590911 -4 13.9375 C-9.16715538 15.88736995 -13.55748345 16.55197768 -19 15.9375 C-22.0625 13.875 -22.0625 13.875 -24 10.9375 C-24.14738121 6.73713565 -23.74832047 4.77652598 -20.9375 1.625 C-14.65944494 -1.98154227 -6.30932745 -4.33766262 0 0 Z " fill="#59B6D6" transform="translate(302,472.0625)"/>
<path d="M0 0 C9.84592349 2.99024343 9.84592349 2.99024343 13 7 C13.65341537 11.41055377 13.51318284 13.2906002 10.875 16.9375 C7.42172142 19.41485203 6.16418173 19.35461402 2 19 C-1.140625 18.01171875 -1.140625 18.01171875 -4.25 16.6875 C-5.28640625 16.25824219 -6.3228125 15.82898438 -7.390625 15.38671875 C-10 14 -10 14 -12 11 C-12.41857482 7.16306413 -12.54644269 4.88796936 -10.5 1.5625 C-6.95923605 -0.65047747 -3.99509752 -0.68740179 0 0 Z " fill="#59B6D6" transform="translate(133,464)"/>
<path d="M0 0 C2.4375 1.5625 2.4375 1.5625 4 4 C5.1974565 9.98728248 2.79091363 13.78979748 -0.19921875 18.765625 C-2.25125358 21.31175065 -4.05671197 22.59452292 -7 24 C-10.625 24 -10.625 24 -14 23 C-16.60116195 20.23626542 -16.97691688 18.58861946 -17.125 14.8125 C-15.53963895 9.43988754 -12.56002089 5.29175729 -9 1 C-5.90826248 -0.54586876 -3.40570448 -0.29359521 0 0 Z " fill="#59B6D6" transform="translate(454,351)"/>
<path d="M0 0 C2.4375 1.5 2.4375 1.5 4 4 C5.07156948 10.90566998 2.87425556 16.25998452 -1 22 C-3.88018579 24.660853 -4.50105237 25.01750693 -8.5625 24.875 C-13.2810559 23.67391304 -13.2810559 23.67391304 -15 21 C-16.98543485 14.29059947 -13.49351919 8.81470925 -10.375 2.9375 C-7.66073954 -0.88713974 -4.40648763 -0.37986962 0 0 Z " fill="#59B6D6" transform="translate(472,315)"/>
<path d="M0 0 C1.30066406 0.02191406 2.60132813 0.04382813 3.94140625 0.06640625 C7.0692361 0.39841054 8.85952503 0.71885002 11.4375 2.4375 C13.5190902 5.11383026 13.43337591 6.55503668 13.3125 10 C12.4375 13.4375 12.4375 13.4375 10.84765625 15.12890625 C7.487477 16.95331476 4.80377684 16.83511909 1 16.8125 C-0.29808594 16.82023437 -1.59617188 16.82796875 -2.93359375 16.8359375 C-6.68904204 16.42360626 -8.59100161 15.71472306 -11.5625 13.4375 C-13.00680855 10.54888291 -12.93938506 8.64102299 -12.5625 5.4375 C-8.75813484 0.48095568 -6.14030503 -0.18902627 0 0 Z " fill="#59B6D6" transform="translate(211.5625,479.5625)"/>
<path d="M0 0 C2.5 1.625 2.5 1.625 4 4 C4.78694222 8.02214914 4.25993596 9.58913348 2.0625 13.0625 C-1.32971368 16.69495544 -5.35045421 19.26438188 -10 21 C-13.9445575 21.0636219 -15.90905612 20.91498519 -18.9375 18.375 C-20.50152277 14.8789491 -20.65412951 12.79395117 -20 9 C-17.96643415 6.55060697 -15.60556932 4.80638209 -13 3 C-12.195625 2.38125 -11.39125 1.7625 -10.5625 1.125 C-6.73112062 -0.557069 -4.18518023 -0.46502003 0 0 Z " fill="#59B6D6" transform="translate(372,437)"/>
<path d="M0 0 C2.3125 1.4375 2.3125 1.4375 4 4 C4.94755829 10.60951151 4.2641033 18.18677339 0.8125 24 C-2.27086287 25.70116572 -4.56233199 25.4741611 -8 25 C-10.72265625 22.9375 -10.72265625 22.9375 -13 20 C-13.41015625 16.40625 -13.41015625 16.40625 -13.0625 12.5 C-12.97097656 11.2109375 -12.87945312 9.921875 -12.78515625 8.59375 C-11.92312424 4.64813087 -10.85315646 2.81637544 -8 0 C-4.61786861 -1.12737713 -3.35228621 -1.06292002 0 0 Z " fill="#59B6D6" transform="translate(491,238)"/>
<path d="M0 0 C3.4236954 2.12824309 4.30722191 4.48538955 5.25 8.25 C6.18795265 13.37916449 7.12752111 18.55703759 4.875 23.4375 C2.2377954 25.6351705 0.41464098 25.93170718 -3 26 C-6.52906067 24.39588152 -7.82772908 23.25840638 -10 20 C-11.53357204 14.07348611 -12.59604676 6.74520042 -9.4375 1.3125 C-6.03362851 -0.52035388 -3.80853299 -0.54407614 0 0 Z " fill="#59B6D6" transform="translate(486,158)"/>
<path d="M0 0 C3.58926496 5.89907585 6.21202507 13.06220134 5 20 C2.9375 22.5625 2.9375 22.5625 0 24 C-4.11341722 24.07216521 -6.15264404 23.7532053 -9.25 21 C-12.27872327 15.80790297 -14.07049039 11.18520199 -13.875 5.125 C-13.00844209 2.03015032 -12.63828939 0.7588596 -10 -1 C-6.2640296 -2.67474535 -3.52281308 -1.90819042 0 0 Z " fill="#59B6D6" transform="translate(477,121)"/>
<path d="M0 0 C2.63444317 1.26279094 3.81995977 2.15311083 4.890625 4.90625 C4.76933114 8.36312503 4.58150679 10.86992732 2.640625 13.78125 C-0.60874566 15.87013114 -3.51246147 15.9778504 -7.30078125 15.5234375 C-8.41324219 15.27851563 -9.52570313 15.03359375 -10.671875 14.78125 C-11.78691406 14.55179687 -12.90195313 14.32234375 -14.05078125 14.0859375 C-17.72080439 12.67042411 -19.07040559 11.23640053 -21.109375 7.90625 C-21.109375 4.19315791 -20.90544366 1.93450535 -18.609375 -1.03125 C-12.50046341 -3.62753743 -6.03121901 -2.27752326 0 0 Z " fill="#59B6D6" transform="translate(180.109375,477.09375)"/>
<path d="M0 0 C9.32435034 4.64870067 9.32435034 4.64870067 11 8 C11.26240772 11.54250417 11.4108745 14.13259827 9.875 17.375 C7.26968508 19.6329396 5.42363955 19.76275855 2 20 C-1.10546875 18.890625 -1.10546875 18.890625 -4.1875 17.25 C-5.21230469 16.71890625 -6.23710938 16.1878125 -7.29296875 15.640625 C-9.63623412 14.22046417 -11.35645469 13.17123879 -13 11 C-13.39316878 7.90379585 -13.61768277 5.95775018 -13 3 C-9.36023885 -1.66344397 -5.33272373 -1.77450979 0 0 Z " fill="#59B6D6" transform="translate(98,448)"/>
<path d="M0 0 C3.20445477 4.07908242 3.43243256 7.45958888 3.4375 12.5625 C3.46650391 14.51349609 3.46650391 14.51349609 3.49609375 16.50390625 C3 20 3 20 1.2265625 22.4375 C-2.4135571 24.9919699 -4.62403906 24.48621788 -9 24 C-11.67431489 22.18836733 -11.95920359 21.12238923 -13 18 C-13.17322707 15.50382632 -13.27658118 13.06005517 -13.3125 10.5625 C-13.34988281 9.24378906 -13.38726562 7.92507812 -13.42578125 6.56640625 C-13 3 -13 3 -11.16796875 0.58984375 C-6.967482 -2.4905132 -4.60121961 -2.10889232 0 0 Z " fill="#59B6D6" transform="translate(493,199)"/>
<path d="M0 0 C4.67024548 1.00730785 7.95440464 3.17794043 11.1875 6.6875 C12.31046887 10.30595524 12.5753809 12.3828097 11.5 16 C9.81634529 18.16469891 8.83566011 18.90020916 6.1875 19.6875 C0.08402383 19.57447266 -2.60860856 17.79129879 -6.8125 13.6875 C-8.25680855 10.79888291 -8.18938506 8.89102299 -7.8125 5.6875 C-5.43541401 2.47144248 -3.91035374 0.95586425 0 0 Z " fill="#59B5D6" transform="translate(62.8125,427.3125)"/>
<path d="M0 0 C3.78386668 2.37591629 6.15722906 4.92650634 8 9 C8.68490743 13.10944459 8.35242196 14.49806569 5.9375 17.9375 C3 20 3 20 -0.5 20.125 C-5.2866669 18.58642849 -7.46128083 16.09825341 -10.375 12.125 C-11.35238436 8.80189318 -10.84509445 6.3200139 -10 3 C-7.07633177 -0.35680426 -4.30565927 -0.61509418 0 0 Z " fill="#59B6D6" transform="translate(438,54)"/>
<path d="M0 0 C1.9375 1.0625 1.9375 1.0625 3 3 C3.23639776 5.71857423 3.13476016 8.25987669 3 11 C0 11 0 11 -2.26171875 9.1015625 C-3.06222656 8.28429687 -3.86273438 7.46703125 -4.6875 6.625 C-5.49574219 5.81289063 -6.30398438 5.00078125 -7.13671875 4.1640625 C-9 2 -9 2 -9 0 C-5.85000502 -1.57499749 -3.36459118 -0.70833498 0 0 Z " fill="#5AB3D2" transform="translate(432,384)"/>
<path d="M0 0 C-0.75 1.9375 -0.75 1.9375 -2 4 C-5.73410223 5.39113613 -9.80729539 5.3351796 -13.75 5.5625 C-14.79607422 5.62727539 -14.79607422 5.62727539 -15.86328125 5.69335938 C-17.57531922 5.79889596 -19.28763561 5.8998991 -21 6 C-21 5.01 -21 4.02 -21 3 C-18.43850372 2.49432271 -15.87600535 1.99529868 -13.3125 1.5 C-12.59126953 1.35691406 -11.87003906 1.21382813 -11.12695312 1.06640625 C-7.36158641 0.34428113 -3.85526187 -0.1824976 0 0 Z " fill="#F1C052" transform="translate(249,436)"/>
<path d="M0 0 C1.1055189 0.93590504 2.20935453 1.87379858 3.3125 2.8125 C3.92738281 3.33457031 4.54226563 3.85664063 5.17578125 4.39453125 C8.51952278 7.3373102 8.51952278 7.3373102 10 9 C10 9.66 10 10.32 10 11 C7 12 7 12 4.5 11.3125 C1.65662375 9.81972747 0.43721185 8.8744237 -1 6 C-0.6875 2.75 -0.6875 2.75 0 0 Z " fill="#59B4D3" transform="translate(385,423)"/>
</svg>
