<?xml version="1.0" encoding="UTF-8"?>
<svg version="1.1" xmlns="http://www.w3.org/2000/svg" width="512" height="512">
  <path d="M0 0 C1.56848256 -0.00461089 3.13696081 -0.01096507 4.70543003 -0.01890898 C9.00881624 -0.03559977 13.31184741 -0.02735713 17.61523485 -0.0149641 C22.25880362 -0.00591491 26.90231128 -0.0198827 31.54586792 -0.03088379 C40.63994845 -0.04867498 49.73389695 -0.04482635 58.82798266 -0.03323323 C66.21859493 -0.02420155 73.60917018 -0.02297376 80.99978638 -0.02732849 C82.05145416 -0.02794142 83.10312194 -0.02855436 84.18665844 -0.02918586 C86.3230676 -0.03046476 88.45947674 -0.03176161 90.59588587 -0.03307623 C110.63138619 -0.04448378 130.66681331 -0.03136555 150.70230162 -0.00987476 C167.89556521 0.00799637 185.08872078 0.00489231 202.28198242 -0.0135498 C222.2455406 -0.0349534 242.20903461 -0.04338513 262.17260265 -0.03110075 C264.30117479 -0.02982655 266.42974694 -0.02856906 268.55831909 -0.02732849 C269.60563109 -0.02671139 270.6529431 -0.02609429 271.73199183 -0.02545848 C279.11415971 -0.02200406 286.49628691 -0.02783594 293.87844849 -0.0372467 C302.87423625 -0.04846237 311.86988438 -0.0454357 320.86565614 -0.02412373 C325.45590414 -0.01360753 330.04591931 -0.00950121 334.63616562 -0.02272034 C338.83810935 -0.03463826 343.03960439 -0.02809174 347.24150741 -0.00681013 C348.76159658 -0.00234151 350.28172364 -0.00461623 351.80178845 -0.01431328 C365.98820625 -0.09787229 365.98820625 -0.09787229 371.77905273 4.50793457 C373.07617188 6.48156738 373.07617188 6.48156738 373.75170898 8.46105957 C375.83362648 13.22665578 378.74756579 14.86326616 383.21655273 17.25793457 C405.5481446 30.27070426 419.93256157 51.42307656 427.80639648 75.75012207 C432.93215925 95.55326977 433.15804892 117.95749257 426.77905273 137.50793457 C426.57538086 138.1479541 426.37170898 138.78797363 426.16186523 139.4473877 C417.60536965 165.40737275 399.1369109 184.24534859 375.77905273 197.50793457 C375.78349396 198.39219116 375.78793518 199.27644775 375.79251099 200.1875 C375.83267889 208.54376605 375.86308339 216.89999941 375.88267708 225.25634003 C375.89308919 229.55183551 375.90720114 233.84725083 375.92993164 238.1427002 C375.9517521 242.29241213 375.96364069 246.44204723 375.96880722 250.59181213 C375.97248651 252.1705496 375.97967107 253.74928314 375.99051285 255.32798767 C376.00515041 257.54886784 376.00702561 259.76943537 376.00610352 261.99035645 C376.01054474 263.25166382 376.01498596 264.51297119 376.01956177 265.8125 C375.60393298 272.19865922 374.59900839 277.94851706 369.77905273 282.50793457 C363.46223846 286.04588617 357.66393683 285.93107982 350.53588867 285.8927002 C349.31692902 285.89807297 348.09796936 285.90344574 346.84207153 285.90898132 C344.19935791 285.91875008 341.55727023 285.92320483 338.91460419 285.91862488 C334.71650214 285.91177049 330.51866991 285.92776479 326.32061768 285.94702148 C317.39011057 285.98480926 308.45962744 285.99763572 299.52905273 286.00793457 C289.92538466 286.0190473 280.32184321 286.03482949 270.71826005 286.07864714 C267.23846087 286.09382442 263.75887752 286.10299165 260.2790451 286.09724426 C245.16283758 286.07348543 230.61814528 286.45004825 215.77905273 289.50793457 C215.96697388 290.26770599 216.15489502 291.02747742 216.34851074 291.81027222 C218.11676124 298.96112802 219.88279496 306.11252585 221.64632416 313.26454735 C222.55310767 316.9416845 223.46075506 320.61860395 224.37036133 324.29504395 C225.24770606 327.8412246 226.12280162 331.38795326 226.99632263 334.93507767 C227.3304342 336.290095 227.66536372 337.64491092 228.00111389 338.99952316 C228.47025659 340.89290944 228.936255 342.78707398 229.40209961 344.68127441 C229.668573 345.76049164 229.93504639 346.83970886 230.20959473 347.95162964 C230.77905273 350.50793457 230.77905273 350.50793457 230.77905273 352.50793457 C231.46531738 352.49746094 232.15158203 352.4869873 232.85864258 352.47619629 C235.95707562 352.43471583 239.05545034 352.40863388 242.15405273 352.38293457 C243.23428711 352.36617676 244.31452148 352.34941895 245.42749023 352.33215332 C246.45874023 352.32570801 247.48999023 352.3192627 248.55249023 352.31262207 C249.50559082 352.30214844 250.45869141 352.2916748 251.44067383 352.28088379 C253.77905273 352.50793457 253.77905273 352.50793457 255.77905273 354.50793457 C256.02905273 357.50793457 256.02905273 357.50793457 255.77905273 360.50793457 C253.01591002 363.27107728 251.4252113 362.75938674 247.55371094 362.76190186 C246.90821195 362.76502184 246.26271296 362.76814182 245.59765339 362.77135634 C243.42495526 362.77936235 241.25253442 362.77300276 239.07983398 362.76672363 C237.52615189 362.76943235 235.97247108 362.7729926 234.41879272 362.77734375 C230.1916071 362.78648428 225.96451878 362.78291668 221.73733139 362.77658558 C217.32065309 362.77153417 212.90398331 362.77621463 208.48730469 362.77935791 C201.06923929 362.78300007 193.65121366 362.77819192 186.2331543 362.76867676 C177.64780521 362.75779172 169.06255111 362.76131713 160.47720432 362.77232957 C153.11582658 362.78139534 145.75447749 362.78269121 138.39309597 362.77745223 C133.99216085 362.77432861 129.59127042 362.77393389 125.19033813 362.78052521 C121.05354983 362.78628775 116.91688439 362.78232192 112.78010941 362.77073669 C111.25869577 362.76808424 109.73727186 362.76886513 108.21586227 362.77326202 C106.14523175 362.77869602 104.07499941 362.77191 102.00439453 362.76190186 C100.84368942 362.7611478 99.68298431 362.76039375 98.48710632 362.75961685 C95.77905273 362.50793457 95.77905273 362.50793457 93.77905273 360.50793457 C93.52905273 357.50793457 93.52905273 357.50793457 93.77905273 354.50793457 C95.77905273 352.50793457 95.77905273 352.50793457 98.11743164 352.28088379 C99.07053223 352.29135742 100.02363281 352.30183105 101.00561523 352.31262207 C102.03686523 352.31906738 103.06811523 352.3255127 104.13061523 352.33215332 C105.21084961 352.34891113 106.29108398 352.36566895 107.40405273 352.38293457 C108.49202148 352.39195801 109.57999023 352.40098145 110.70092773 352.41027832 C113.39386507 352.43390058 116.08631365 352.46853004 118.77905273 352.50793457 C118.99529297 351.50004883 119.2115332 350.49216309 119.43432617 349.45373535 C122.34972965 336.02515619 125.67165304 322.70674133 129.02905273 309.38293457 C129.58917098 307.15252166 130.14906819 304.92205324 130.70874023 302.69152832 C132.06297077 297.29635617 133.41990088 291.90186893 134.77905273 286.50793457 C133.64598568 286.50573473 133.64598568 286.50573473 132.49002838 286.50349045 C114.09428533 286.46640891 95.69873196 286.40737632 77.30313873 286.32403183 C68.40708623 286.28425383 59.51112203 286.25185505 50.61499023 286.23693848 C42.85943822 286.22391552 35.10408059 286.19693448 27.34863806 286.1533215 C23.24366466 286.13072107 19.1389309 286.11502303 15.03388977 286.11605072 C11.16614696 286.11679818 7.29893359 286.09881345 3.43132782 286.06676674 C2.0156623 286.05828263 0.59993728 286.0565077 -0.81574249 286.06213188 C-8.68141392 286.08920622 -14.56164635 285.90903262 -21.22094727 281.50793457 C-25.95371093 275.9257005 -26.34971067 270.51168105 -26.33447266 263.4107666 C-26.33439713 262.22999542 -26.33432159 261.04922424 -26.33424377 259.83267212 C-26.32650185 257.94329422 -26.32650185 257.94329422 -26.31860352 256.01574707 C-26.31718857 254.7146701 -26.31577362 253.41359314 -26.3143158 252.0730896 C-26.3105157 248.63063604 -26.3007071 245.18822532 -26.28961182 241.74578857 C-26.27934352 238.22640563 -26.27480661 234.7070157 -26.26977539 231.18762207 C-26.25908235 224.29437541 -26.24203638 217.40115705 -26.22094727 210.50793457 C-26.99567383 210.20484375 -27.77040039 209.90175293 -28.56860352 209.58947754 C-49.88198516 200.89854596 -65.12281224 179.8174405 -74.22094727 159.50793457 C-83.38233552 137.2482084 -84.88364581 110.42115041 -77.22094727 87.50793457 C-76.83551758 86.3452002 -76.45008789 85.18246582 -76.05297852 83.98449707 C-67.47910175 60.17742179 -50.06324237 38.92908212 -27.22094727 27.50793457 C-26.71017746 23.76985626 -26.38140557 20.057171 -26.09790039 16.29699707 C-25.68171245 11.69268366 -25.34223335 8.13097228 -22.22094727 4.50793457 C-15.52493989 -0.77725228 -8.13287627 -0.05188261 0 0 Z " fill="#DE9ED8" transform="translate(81.220947265625,110.4920654296875)"/>
  <path d="M0 0 C0.33 0 0.66 0 1 0 C1 10.89 1 21.78 1 33 C105.28 33 209.56 33 317 33 C317 94.38 317 155.76 317 219 C299.51 219 282.02 219 264 219 C263.95989119 201.11147104 263.95989119 201.11147104 263.95117188 193.50390625 C263.94518712 188.30679304 263.93809657 183.1096974 263.92456055 177.91259766 C263.91371915 173.72401613 263.90772049 169.53545344 263.90512276 165.34685898 C263.90327078 163.74642515 263.89965448 162.1459924 263.89426994 160.54556656 C263.8870429 158.30916339 263.88600977 156.07283869 263.88647461 153.83642578 C263.884254 152.56179474 263.88203339 151.2871637 263.87974548 149.97390747 C264 147 264 147 265 145 C267.4178712 144.89173711 269.83087556 144.81260211 272.25 144.75 C273.27287109 144.69972656 273.27287109 144.69972656 274.31640625 144.6484375 C277.8517082 144.57979086 279.57366797 144.62759715 282.28515625 146.99609375 C282.85105469 147.65738281 283.41695313 148.31867188 284 149 C287.12635209 149.41746608 287.12635209 149.41746608 290 149 C291.22641234 147.96471454 291.22641234 147.96471454 291.39453125 145.765625 C290.83565016 141.84792392 288.56959089 140.18650159 285.6875 137.75 C285.14206543 137.27038818 284.59663086 136.79077637 284.03466797 136.29663086 C279.74446848 132.55217455 275.33944294 128.94440013 270.90625 125.37109375 C267.60001272 122.67366629 264.35872149 119.9085463 261.125 117.125 C259.93361795 116.10023228 258.74221167 115.07549273 257.55078125 114.05078125 C256.96119629 113.54369629 256.37161133 113.03661133 255.76416016 112.51416016 C249.11480163 106.80708548 242.43124843 101.14439496 235.625 95.625 C231.17176095 92.00268602 226.82786142 88.26984793 222.5 84.5 C220.59701305 82.85180226 218.69329269 81.20445452 216.78955078 79.55712891 C215.11986871 78.1043005 213.46385827 76.63716628 211.80859375 75.16796875 C210.86113281 74.34941406 209.91367187 73.53085938 208.9375 72.6875 C208.12152344 71.96949219 207.30554688 71.25148438 206.46484375 70.51171875 C203.23445174 68.53047991 201.73538595 68.29204655 198 69 C195.37847982 70.6549518 193.19234063 72.69478205 190.9375 74.8125 C189.60618473 76.01511599 188.27414094 77.21692594 186.94140625 78.41796875 C185.94778076 79.32554932 185.94778076 79.32554932 184.93408203 80.25146484 C182.13854237 82.77881337 179.26373641 85.20540111 176.375 87.625 C175.31226747 88.52055747 174.249767 89.41639039 173.1875 90.3125 C172.66414062 90.75335938 172.14078125 91.19421875 171.6015625 91.6484375 C169.96071264 93.0331547 168.32361195 94.42218891 166.6875 95.8125 C161.68053611 100.06514124 156.66102871 104.29447886 151.5625 108.4375 C146.75596022 112.3510977 142.04274803 116.36355108 137.34545898 120.40673828 C133.84178235 123.42250048 130.32729156 126.42424253 126.79296875 129.40405273 C125.69427937 130.33179557 124.59786085 131.26223544 123.50390625 132.19555664 C121.1626196 134.19199979 118.80874533 136.14799469 116.375 138.03125 C113.48565791 140.31306932 113.48565791 140.31306932 111 143 C110.79172045 146.36223534 110.79172045 146.36223534 112 149 C114.832168 149.33448259 114.832168 149.33448259 118 149 C118.58007812 148.34128906 119.16015625 147.68257812 119.7578125 147.00390625 C122.888075 144.2063023 124.99698495 144.56253921 129.125 144.6875 C130.36507812 144.71199219 131.60515625 144.73648438 132.8828125 144.76171875 C136 145 136 145 138 146 C138 170.09 138 194.18 138 219 C92.79 219 47.58 219 1 219 C0.67 219.99 0.34 220.98 0 222 C0 213.09 0 204.18 0 195 C-1.65 194.34 -3.3 193.68 -5 193 C-28.50673557 180.4178691 -43.97000559 157.65181069 -52.02734375 132.7578125 C-57.0815169 113.23124796 -57.4333057 91.23705093 -51 72 C-50.61457031 70.83726562 -50.22914062 69.67453125 -49.83203125 68.4765625 C-41.25815449 44.66948722 -23.84229511 23.42114755 -1 12 C-0.53101037 9.1840151 -0.53101037 9.1840151 -0.375 5.9375 C-0.30023438 4.83277344 -0.22546875 3.72804687 -0.1484375 2.58984375 C-0.09945312 1.73519531 -0.05046875 0.88054687 0 0 Z " fill="#FEDBEB" transform="translate(55,126)"/>
  <path d="M0 0 C1.56848256 -0.00461089 3.13696081 -0.01096507 4.70543003 -0.01890898 C9.00881624 -0.03559977 13.31184741 -0.02735713 17.61523485 -0.0149641 C22.25880362 -0.00591491 26.90231128 -0.0198827 31.54586792 -0.03088379 C40.63994845 -0.04867498 49.73389695 -0.04482635 58.82798266 -0.03323323 C66.21859493 -0.02420155 73.60917018 -0.02297376 80.99978638 -0.02732849 C82.05145416 -0.02794142 83.10312194 -0.02855436 84.18665844 -0.02918586 C86.3230676 -0.03046476 88.45947674 -0.03176161 90.59588587 -0.03307623 C110.63138619 -0.04448378 130.66681331 -0.03136555 150.70230162 -0.00987476 C167.89556521 0.00799637 185.08872078 0.00489231 202.28198242 -0.0135498 C222.2455406 -0.0349534 242.20903461 -0.04338513 262.17260265 -0.03110075 C264.30117479 -0.02982655 266.42974694 -0.02856906 268.55831909 -0.02732849 C269.60563109 -0.02671139 270.6529431 -0.02609429 271.73199183 -0.02545848 C279.11415971 -0.02200406 286.49628691 -0.02783594 293.87844849 -0.0372467 C302.87423625 -0.04846237 311.86988438 -0.0454357 320.86565614 -0.02412373 C325.45590414 -0.01360753 330.04591931 -0.00950121 334.63616562 -0.02272034 C338.83810935 -0.03463826 343.03960439 -0.02809174 347.24150741 -0.00681013 C348.76159658 -0.00234151 350.28172364 -0.00461623 351.80178845 -0.01431328 C365.98820625 -0.09787229 365.98820625 -0.09787229 371.77905273 4.50793457 C373.07617188 6.48156738 373.07617188 6.48156738 373.75170898 8.46105957 C375.83362648 13.22665578 378.74756579 14.86326616 383.21655273 17.25793457 C405.5481446 30.27070426 419.93256157 51.42307656 427.80639648 75.75012207 C432.93215925 95.55326977 433.15804892 117.95749257 426.77905273 137.50793457 C426.57538086 138.1479541 426.37170898 138.78797363 426.16186523 139.4473877 C417.58725739 165.46232446 399.13623689 184.16097219 375.77905273 197.50793457 C375.44905273 209.71793457 375.11905273 221.92793457 374.77905273 234.50793457 C347.05905273 234.50793457 319.33905273 234.50793457 290.77905273 234.50793457 C290.77905273 173.12793457 290.77905273 111.74793457 290.77905273 48.50793457 C186.49905273 48.50793457 82.21905273 48.50793457 -25.22094727 48.50793457 C-25.22094727 9.50793457 -25.22094727 9.50793457 -22.22094727 4.50793457 C-15.70801692 -0.92092388 -8.05217585 -0.0513678 0 0 Z " fill="#FEAFD3" transform="translate(81.220947265625,110.4920654296875)"/>
  <path d="M0 0 C1.56848256 -0.00461089 3.13696081 -0.01096507 4.70543003 -0.01890898 C9.00881624 -0.03559977 13.31184741 -0.02735713 17.61523485 -0.0149641 C22.25880362 -0.00591491 26.90231128 -0.0198827 31.54586792 -0.03088379 C40.63994845 -0.04867498 49.73389695 -0.04482635 58.82798266 -0.03323323 C66.21859493 -0.02420155 73.60917018 -0.02297376 80.99978638 -0.02732849 C82.05145416 -0.02794142 83.10312194 -0.02855436 84.18665844 -0.02918586 C86.3230676 -0.03046476 88.45947674 -0.03176161 90.59588587 -0.03307623 C110.63138619 -0.04448378 130.66681331 -0.03136555 150.70230162 -0.00987476 C167.89556521 0.00799637 185.08872078 0.00489231 202.28198242 -0.0135498 C222.2455406 -0.0349534 242.20903461 -0.04338513 262.17260265 -0.03110075 C264.30117479 -0.02982655 266.42974694 -0.02856906 268.55831909 -0.02732849 C269.60563109 -0.02671139 270.6529431 -0.02609429 271.73199183 -0.02545848 C279.11415971 -0.02200406 286.49628691 -0.02783594 293.87844849 -0.0372467 C302.87423625 -0.04846237 311.86988438 -0.0454357 320.86565614 -0.02412373 C325.45590414 -0.01360753 330.04591931 -0.00950121 334.63616562 -0.02272034 C338.83810935 -0.03463826 343.03960439 -0.02809174 347.24150741 -0.00681013 C348.76159658 -0.00234151 350.28172364 -0.00461623 351.80178845 -0.01431328 C366.06609591 -0.09833106 366.06609591 -0.09833106 371.77905273 4.50793457 C379.05652772 15.42414705 374.77905273 42.59694516 374.77905273 48.50793457 C242.77905273 48.50793457 110.77905273 48.50793457 -25.22094727 48.50793457 C-25.22094727 9.50793457 -25.22094727 9.50793457 -22.22094727 4.50793457 C-15.70801692 -0.92092388 -8.05217585 -0.0513678 0 0 Z " fill="#6C82FA" transform="translate(81.220947265625,110.4920654296875)"/>
  <path d="M0 0 C2.6589137 1.7033368 4.89137781 3.77924022 7.1875 5.9375 C8.5236306 7.14575873 9.86087594 8.35278586 11.19921875 9.55859375 C11.84938965 10.15140137 12.49956055 10.74420898 13.16943359 11.35498047 C15.54546893 13.49018 18.00840198 15.50149185 20.5 17.5 C24.91668944 21.07541526 29.21780385 24.76599348 33.5 28.5 C38.65575716 32.99507698 43.87510878 37.38623222 49.19140625 41.69140625 C53.11556519 44.91696666 56.95583975 48.23690487 60.80224609 51.55444336 C64.38503142 54.63740802 68.00952645 57.65533805 71.6875 60.625 C73.46274806 62.077956 75.23347315 63.53645304 77 65 C77.50789062 65.42055664 78.01578125 65.84111328 78.5390625 66.27441406 C80.10327336 67.58338116 81.64716431 68.91306729 83.1875 70.25 C84.10917969 71.03890625 85.03085937 71.8278125 85.98046875 72.640625 C88 75 88 75 88.42578125 77.671875 C88 80 88 80 86 82 C83.125 82.375 83.125 82.375 80 82 C78.68 80.68 77.36 79.36 76 78 C71.05 77.67 66.1 77.34 61 77 C60.67 101.42 60.34 125.84 60 151 C40.86 151 21.72 151 2 151 C1.96261719 146.70355469 1.92523438 142.40710938 1.88671875 137.98046875 C1.84861653 134.55616414 1.80754373 131.13192387 1.7644577 127.70767975 C1.71978142 124.09216924 1.68034962 120.47677507 1.65356445 116.86108398 C1.62756759 113.37900415 1.58719205 109.89736161 1.53681374 106.41555214 C1.51199236 104.43974801 1.50209061 102.4637748 1.49235535 100.48783875 C1.47256119 99.28682022 1.45276703 98.0858017 1.43237305 96.84838867 C1.42126999 95.78915695 1.41016693 94.72992523 1.39872742 93.63859558 C1.20131711 90.99039906 1.20131711 90.99039906 -0.3079071 89.15873718 C-3.1858147 87.18795972 -6.47643076 87.57395477 -9.84375 87.6015625 C-10.60925171 87.59869232 -11.37475342 87.59582214 -12.16345215 87.59286499 C-13.78068787 87.590825 -15.3979483 87.59635037 -17.01513672 87.60888672 C-19.49112091 87.62494242 -21.96547285 87.60903703 -24.44140625 87.58984375 C-26.01302444 87.59182619 -27.58464161 87.5956699 -29.15625 87.6015625 C-29.89693726 87.59548981 -30.63762451 87.58941711 -31.40075684 87.5831604 C-35.26314172 87.59098692 -35.26314172 87.59098692 -38.6920929 89.15873718 C-40.53961268 91.7596631 -40.39909324 93.67349494 -40.43237305 96.84838867 C-40.45216721 98.0494072 -40.47196136 99.25042572 -40.49235535 100.48783875 C-40.49874527 101.78478165 -40.50513519 103.08172455 -40.51171875 104.41796875 C-40.52856459 105.75891266 -40.54671471 107.09984076 -40.56611633 108.44075012 C-40.61363358 111.96702131 -40.64343133 115.49322844 -40.66955566 119.01971436 C-40.6993528 122.6193914 -40.74588594 126.21884768 -40.79101562 129.81835938 C-40.87706811 136.87879397 -40.94285744 143.93926364 -41 151 C-49.25 151 -57.5 151 -66 151 C-66 126.91 -66 102.82 -66 78 C-71.28 78 -76.56 78 -82 78 C-83.32 79.32 -84.64 80.64 -86 82 C-89.125 82.4375 -89.125 82.4375 -92 82 C-94 79 -94 79 -93.9609375 76.640625 C-92.67158211 73.09751832 -90.41245174 71.14434957 -87.625 68.75 C-86.81361572 68.03058228 -86.81361572 68.03058228 -85.98583984 67.29663086 C-81.72176323 63.54456695 -77.33711241 59.9415646 -72.9140625 56.37890625 C-69.56017798 53.64094958 -66.2780711 50.82783535 -63 48 C-58.87552198 44.44524127 -54.72791303 40.93207058 -50.5 37.5 C-45.09780466 33.11170642 -39.82246895 28.5854692 -34.546875 24.046875 C-30.63937188 20.68599527 -26.71863612 17.34080276 -22.76977539 14.02856445 C-20.05554708 11.75167237 -17.37224693 9.45063208 -14.73046875 7.08984375 C-14.19824707 6.62336426 -13.66602539 6.15688477 -13.11767578 5.67626953 C-11.65499367 4.39360983 -10.20402927 3.09762284 -8.75390625 1.80078125 C-5.3585356 -0.41945403 -3.97938297 -0.82193804 0 0 Z " fill="#FE98C6" transform="translate(259,194)"/>
  <path d="M0 0 C1.08864349 0.00539291 1.08864349 0.00539291 2.19927979 0.01089478 C2.96020432 0.01074875 3.72112885 0.01060272 4.50511169 0.01045227 C7.03202113 0.01115155 9.55885776 0.01894462 12.08575439 0.02676392 C13.83310404 0.02862804 15.58045421 0.03005197 17.32780457 0.03105164 C21.93591749 0.03487724 26.54399909 0.04470788 31.15209961 0.05575562 C35.85068335 0.06596883 40.54927214 0.07054906 45.24786377 0.07559204 C54.47378902 0.08633011 63.69969098 0.10340704 72.92559814 0.12442017 C75.60927459 8.59075988 78.02363131 17.0786636 80.15997314 25.69863892 C80.44286194 26.82969559 80.72575073 27.96075226 81.01721191 29.12608337 C81.60702492 31.48765422 82.19512558 33.84965336 82.78155518 36.21206665 C83.68311791 39.8421984 84.59108323 43.47068699 85.49981689 47.09902954 C86.07441055 49.40297253 86.6486427 51.70700572 87.22247314 54.01113892 C87.49428406 55.09747116 87.76609497 56.18380341 88.04614258 57.30305481 C88.41718109 58.80150688 88.41718109 58.80150688 88.79571533 60.33023071 C89.01459412 61.21035324 89.2334729 62.09047577 89.45898438 62.99726868 C89.92559814 65.12442017 89.92559814 65.12442017 89.92559814 67.12442017 C90.61186279 67.11394653 91.29812744 67.1034729 92.00518799 67.09268188 C95.10362103 67.05120142 98.20199575 67.02511947 101.30059814 66.99942017 C102.38083252 66.98266235 103.46106689 66.96590454 104.57403564 66.94863892 C105.60528564 66.9421936 106.63653564 66.93574829 107.69903564 66.92910767 C109.12868652 66.91339722 109.12868652 66.91339722 110.58721924 66.89736938 C112.92559814 67.12442017 112.92559814 67.12442017 114.92559814 69.12442017 C115.17559814 72.12442017 115.17559814 72.12442017 114.92559814 75.12442017 C112.16245543 77.88756288 110.57175671 77.37587233 106.70025635 77.37838745 C106.05475736 77.38150743 105.40925837 77.38462741 104.7441988 77.38784194 C102.57150067 77.39584794 100.39907983 77.38948836 98.22637939 77.38320923 C96.6726973 77.38591794 95.11901649 77.3894782 93.56533813 77.39382935 C89.33815251 77.40296988 85.11106419 77.39940227 80.8838768 77.39307117 C76.4671985 77.38801977 72.05052872 77.39270023 67.6338501 77.39584351 C60.2157847 77.39948567 52.79775907 77.39467751 45.37969971 77.38516235 C36.79435062 77.37427732 28.20909652 77.37780272 19.62374973 77.38881516 C12.26237199 77.39788094 4.9010229 77.3991768 -2.46035862 77.39393783 C-6.86129374 77.39081421 -11.26218417 77.39041949 -15.66311646 77.3970108 C-19.79990476 77.40277334 -23.9365702 77.39880752 -28.07334518 77.38722229 C-29.59475882 77.38456983 -31.11618273 77.38535073 -32.63759232 77.38974762 C-34.70822284 77.39518161 -36.77845517 77.3883956 -38.84906006 77.37838745 C-40.00976517 77.3776334 -41.17047028 77.37687935 -42.36634827 77.37610245 C-45.07440186 77.12442017 -45.07440186 77.12442017 -47.07440186 75.12442017 C-47.32440186 72.12442017 -47.32440186 72.12442017 -47.07440186 69.12442017 C-45.07440186 67.12442017 -45.07440186 67.12442017 -42.73602295 66.89736938 C-41.78292236 66.90784302 -40.82982178 66.91831665 -39.84783936 66.92910767 C-38.81658936 66.93555298 -37.78533936 66.94199829 -36.72283936 66.94863892 C-35.10248779 66.97377563 -35.10248779 66.97377563 -33.44940186 66.99942017 C-32.36143311 67.0084436 -31.27346436 67.01746704 -30.15252686 67.02676392 C-27.45960034 67.05038608 -24.7671093 67.08332461 -22.07440186 67.12442017 C-21.85743652 66.11580933 -21.64047119 65.10719849 -21.41693115 64.06802368 C-18.74008449 51.75888827 -15.76156465 39.53234587 -12.70062256 27.31362915 C-11.87360594 24.00878836 -11.05297371 20.70240108 -10.23260498 17.39590454 C-9.70759465 15.29359599 -9.18221834 13.1913788 -8.65643311 11.08926392 C-8.41165726 10.10095078 -8.16688141 9.11263763 -7.91468811 8.09437561 C-7.68742538 7.1915535 -7.46016266 6.28873138 -7.22601318 5.35855103 C-7.0271199 4.56234848 -6.82822662 3.76614594 -6.62330627 2.94581604 C-5.51637167 -0.72725719 -3.49598103 0.00730722 0 0 Z " fill="#9EAFFE" transform="translate(222.07440185546875,395.8755798339844)"/>
  <path d="M0 0 C1.32 1.32 2.64 2.64 4 4 C6.31608952 5.56169017 8.63983253 7.07178912 11 8.5625 C33.780171 23.43454309 49.37557935 45.82040876 55.55761719 72.3972168 C59.23563594 90.31690441 58.68987089 110.56159941 53 128 C52.79632813 128.64001953 52.59265625 129.28003906 52.3828125 129.93945312 C44.92261687 152.57331827 29.24966562 171.60947033 9 184 C5.04 185.98 5.04 185.98 1 188 C0.67 125.96 0.34 63.92 0 0 Z " fill="#D6DEFD" transform="translate(455,120)"/>
  <path d="M0 0 C0.76408676 -0.00145523 1.52817352 -0.00291046 2.31541443 -0.00440979 C3.92670515 -0.00275332 5.5380121 0.00877992 7.14916992 0.02954102 C9.61640475 0.05853864 12.08149559 0.05013803 14.54882812 0.03710938 C16.11589586 0.04334589 17.68295682 0.05173616 19.25 0.0625 C19.9875502 0.05956436 20.7251004 0.05662872 21.48500061 0.05360413 C26.54521222 0.14695147 26.54521222 0.14695147 28.75543213 1.65008545 C30.61700597 4.28711889 30.41902499 6.22637589 30.39916992 9.4362793 C30.39883003 11.26783821 30.39883003 11.26783821 30.39848328 13.13639832 C30.38299942 14.455215 30.36751556 15.77403168 30.3515625 17.1328125 C30.34596618 18.49615513 30.34169625 19.85950379 30.33869934 21.22285461 C30.32725324 24.80852967 30.29778861 28.39383929 30.2645874 31.97937012 C30.23388115 35.63919034 30.22002844 39.29907146 30.20507812 42.95898438 C30.17451032 50.13834342 30.11579164 57.31669939 30.05859375 64.49609375 C16.19859375 64.49609375 2.33859375 64.49609375 -11.94140625 64.49609375 C-12.02531295 56.74870807 -12.10544476 49.00296956 -12.14840698 41.25552368 C-12.16952141 37.64769026 -12.19773118 34.0402333 -12.24316406 30.43261719 C-12.2866575 26.95721462 -12.31055046 23.48217687 -12.32091522 20.00652313 C-12.3318924 18.03663591 -12.36311325 16.06689528 -12.39459229 14.097229 C-12.39489441 12.89628601 -12.39519653 11.69534302 -12.39550781 10.45800781 C-12.40439026 9.4009967 -12.41327271 8.3439856 -12.42242432 7.25494385 C-11.20569241 0.27645143 -6.09821844 -0.0931405 0 0 Z " fill="#A781DF" transform="translate(229.94140625,280.50390625)"/>
  <path d="M0 0 C2.6589137 1.7033368 4.89137781 3.77924022 7.1875 5.9375 C8.5236306 7.14575873 9.86087594 8.35278586 11.19921875 9.55859375 C11.84938965 10.15140137 12.49956055 10.74420898 13.16943359 11.35498047 C15.54546893 13.49018 18.00840198 15.50149185 20.5 17.5 C24.91668944 21.07541526 29.21780385 24.76599348 33.5 28.5 C38.65575716 32.99507698 43.87510878 37.38623222 49.19140625 41.69140625 C53.11556519 44.91696666 56.95583975 48.23690487 60.80224609 51.55444336 C64.38503142 54.63740802 68.00952645 57.65533805 71.6875 60.625 C73.46274806 62.077956 75.23347315 63.53645304 77 65 C77.50789062 65.42055664 78.01578125 65.84111328 78.5390625 66.27441406 C80.10327336 67.58338116 81.64716431 68.91306729 83.1875 70.25 C84.10917969 71.03890625 85.03085937 71.8278125 85.98046875 72.640625 C88 75 88 75 88.42578125 77.671875 C88 80 88 80 86 82 C82.19507107 82.5465937 80.54969638 82.39475947 77.39453125 80.12890625 C76.54246094 79.28199219 75.69039062 78.43507813 74.8125 77.5625 C73.84863502 76.63174678 72.88242953 75.70341207 71.9140625 74.77734375 C71.4284082 74.30796387 70.94275391 73.83858398 70.44238281 73.35498047 C68.28382578 71.32722293 65.99505684 69.47989451 63.6875 67.625 C59.43872698 64.19213645 55.26458168 60.68774541 51.125 57.125 C46.57708419 53.21163382 42.02033529 49.30994726 37.4375 45.4375 C36.63916748 44.76291748 36.63916748 44.76291748 35.82470703 44.07470703 C34.7528666 43.16931558 33.68092674 42.26404183 32.60888672 41.35888672 C29.90427713 39.07453816 27.20226307 36.78712339 24.5 34.5 C21.18034107 31.69063243 17.86031018 28.88170802 14.5390625 26.07421875 C9.01086733 21.40037389 3.48742591 16.72173857 -2 12 C-4.75187312 13.27604159 -6.94516965 14.64472937 -9.21484375 16.65234375 C-9.81184082 17.17586426 -10.40883789 17.69938477 -11.02392578 18.23876953 C-11.65540527 18.79935059 -12.28688477 19.35993164 -12.9375 19.9375 C-14.28720157 21.12173098 -15.63747171 22.30531424 -16.98828125 23.48828125 C-17.6632666 24.0807666 -18.33825195 24.67325195 -19.03369141 25.28369141 C-21.8720309 27.76115933 -24.74414359 30.19722253 -27.625 32.625 C-28.15279053 33.07029053 -28.68058105 33.51558105 -29.22436523 33.97436523 C-30.28508659 34.86892801 -31.34603901 35.76321687 -32.40722656 36.65722656 C-35.10814812 38.93421439 -37.80377244 41.21745794 -40.5 43.5 C-41.58330865 44.41669584 -42.66664196 45.33336253 -43.75 46.25 C-44.28625 46.70375 -44.8225 47.1575 -45.375 47.625 C-47 49 -48.625 50.375 -50.25 51.75 C-50.78641113 52.20391113 -51.32282227 52.65782227 -51.87548828 53.12548828 C-52.95709521 54.04064413 -54.03880069 54.9556835 -55.12060547 55.87060547 C-57.85617939 58.18443478 -60.58992474 60.50036471 -63.3203125 62.8203125 C-69.44649948 68.02148582 -75.60937239 73.16542157 -81.85546875 78.22265625 C-84.03470231 79.97255709 -84.03470231 79.97255709 -86 82 C-89 82.3125 -89 82.3125 -92 82 C-94 79 -94 79 -93.9609375 76.640625 C-92.67158211 73.09751832 -90.41245174 71.14434957 -87.625 68.75 C-86.81361572 68.03058228 -86.81361572 68.03058228 -85.98583984 67.29663086 C-81.72176323 63.54456695 -77.33711241 59.9415646 -72.9140625 56.37890625 C-69.56017798 53.64094958 -66.2780711 50.82783535 -63 48 C-58.87552198 44.44524127 -54.72791303 40.93207058 -50.5 37.5 C-45.09780466 33.11170642 -39.82246895 28.5854692 -34.546875 24.046875 C-30.63937188 20.68599527 -26.71863612 17.34080276 -22.76977539 14.02856445 C-20.05554708 11.75167237 -17.37224693 9.45063208 -14.73046875 7.08984375 C-14.19824707 6.62336426 -13.66602539 6.15688477 -13.11767578 5.67626953 C-11.65499367 4.39360983 -10.20402927 3.09762284 -8.75390625 1.80078125 C-5.3585356 -0.41945403 -3.97938297 -0.82193804 0 0 Z " fill="#FF7FB8" transform="translate(259,194)"/>
  <path d="M0 0 C0.64549899 -0.00311998 1.29099798 -0.00623996 1.95605755 -0.00945449 C4.12875568 -0.01746049 6.30117652 -0.01110091 8.47387695 -0.00482178 C10.02755904 -0.00753049 11.58123985 -0.01109075 13.13491821 -0.01544189 C17.36210384 -0.02458243 21.58919216 -0.02101482 25.81637955 -0.01468372 C30.23305785 -0.00963232 34.64972763 -0.01431278 39.06640625 -0.01745605 C46.48447165 -0.02109822 53.90249727 -0.01629006 61.32055664 -0.0067749 C69.90590573 0.00411013 78.49115983 0.00058473 87.07650661 -0.01042771 C94.43788436 -0.01949349 101.79923345 -0.02078935 109.16061497 -0.01555037 C113.56155009 -0.01242676 117.96244052 -0.01203203 122.3633728 -0.01862335 C126.50016111 -0.02438589 130.63682655 -0.02042006 134.77360153 -0.00883484 C136.29501516 -0.00618238 137.81643907 -0.00696328 139.33784866 -0.01136017 C141.40847918 -0.01679416 143.47871152 -0.01000815 145.54931641 0 C147.29037407 0.00113108 147.29037407 0.00113108 149.06660461 0.002285 C151.7746582 0.25396729 151.7746582 0.25396729 153.7746582 2.25396729 C154.0246582 5.25396729 154.0246582 5.25396729 153.7746582 8.25396729 C151.01151549 11.01711 149.42081676 10.50541945 145.54931641 10.50793457 C144.90381742 10.51105455 144.25831842 10.51417453 143.59325886 10.51738906 C141.42056073 10.52539506 139.24813988 10.51903548 137.07543945 10.51275635 C135.52175736 10.51546506 133.96807655 10.51902532 132.41439819 10.52337646 C128.18721257 10.532517 123.96012425 10.52894939 119.73293686 10.52261829 C115.31625856 10.51756689 110.89958877 10.52224735 106.48291016 10.52539062 C99.06484476 10.52903279 91.64681913 10.52422463 84.22875977 10.51470947 C75.64341068 10.50382444 67.05815657 10.50734984 58.47280979 10.51836228 C51.11143205 10.52742806 43.75008296 10.52872392 36.38870144 10.52348495 C31.98776632 10.52036133 27.58687588 10.5199666 23.1859436 10.52655792 C19.0491553 10.53232046 14.91248986 10.52835463 10.77571487 10.51676941 C9.25430124 10.51411695 7.73287733 10.51489785 6.21146774 10.51929474 C4.14083722 10.52472873 2.07060488 10.51794272 0 10.50793457 C-1.16070511 10.50718052 -2.32141022 10.50642647 -3.51728821 10.50564957 C-6.2253418 10.25396729 -6.2253418 10.25396729 -8.2253418 8.25396729 C-8.4753418 5.25396729 -8.4753418 5.25396729 -8.2253418 2.25396729 C-5.46219908 -0.50917543 -3.87150036 0.00251512 0 0 Z " fill="#6583FE" transform="translate(183.225341796875,462.74603271484375)"/>
  <path d="M0 0 C3.84585249 3.38801291 7.42731411 6.70456686 7.828125 11.9921875 C7.84359375 13.04664063 7.8590625 14.10109375 7.875 15.1875 C7.90078125 16.23679687 7.9265625 17.28609375 7.953125 18.3671875 C7.58597644 21.66278293 6.65822193 22.79307283 4.625 25.3125 C5.28596786 27.96495602 5.28596786 27.96495602 6.625 30.3125 C7.80173198 32.66596396 7.79123866 34.1931033 7.8125 36.8125 C7.82667969 37.6065625 7.84085938 38.400625 7.85546875 39.21875 C7.625 41.3125 7.625 41.3125 5.625 43.3125 C2.90035003 43.6618141 1.29047844 43.73150494 -1.0625 42.25 C-2.94613816 39.46939129 -3.5811186 36.5490934 -4.375 33.3125 C-8.89611819 32.1598664 -8.89611819 32.1598664 -13.1875 33.3125 C-14.87921819 36.16170959 -15.58970318 39.11090528 -16.375 42.3125 C-21.775 43.6325 -21.775 43.6325 -24.25 42.3125 C-25.99762419 39.20561256 -25.73705246 36.81234047 -25.375 33.3125 C-24.38085407 31.64233484 -23.3814275 29.97529327 -22.375 28.3125 C-22.57293094 25.60744384 -23.10924355 23.80242506 -24.3984375 21.42578125 C-26.09515011 17.75409516 -25.99793903 14.26426946 -25.375 10.3125 C-23.38777236 5.26458692 -20.31235181 1.3408118 -15.3984375 -1.0625 C-9.94663485 -2.74645449 -5.08299239 -2.5414962 0 0 Z " fill="#A483E1" transform="translate(110.375,277.6875)"/>
  <path d="M0 0 C25.74 0 51.48 0 78 0 C80 5 80 5 80 13 C52.61 13 25.22 13 -3 13 C-2 5 -2 5 0 0 Z " fill="#8399FE" transform="translate(217,396)"/>
  <path d="M0 0 C0.77590485 -0.00525696 1.55180969 -0.01051392 2.35122681 -0.01593018 C4.91794927 -0.02914225 7.48405239 -0.02038807 10.05078125 -0.01025391 C11.83292765 -0.0122743 13.61507324 -0.01518545 15.3972168 -0.01895142 C19.1330553 -0.0233764 22.86867868 -0.01693817 26.60449219 -0.00292969 C31.39657209 0.01416236 36.18814795 0.0043221 40.98020935 -0.01364708 C44.66047981 -0.02448025 48.3406305 -0.02104074 52.02090454 -0.0132637 C53.78797464 -0.0112604 55.55505557 -0.01372553 57.32211304 -0.02070236 C59.79055649 -0.02830926 62.2581802 -0.01672393 64.7265625 0 C65.45912262 -0.00607269 66.19168274 -0.01214539 66.94644165 -0.0184021 C69.87530133 0.0184174 71.87689244 0.04928389 74.32104492 1.75228882 C75.79937712 4.07267993 75.70841412 5.69614717 75.36328125 8.38818359 C72.85890961 10.89255523 71.35012988 10.63130246 67.93283081 10.65924072 C67.17640289 10.65519226 66.41997498 10.6511438 65.640625 10.64697266 C64.84375275 10.65047729 64.04688049 10.65398193 63.2258606 10.65759277 C60.58407963 10.66641638 57.94256508 10.66055878 55.30078125 10.65380859 C53.46997018 10.65515506 51.63915945 10.65709544 49.80834961 10.65960693 C45.96822715 10.66255905 42.12819762 10.65825776 38.28808594 10.64892578 C33.35809431 10.63753119 28.42832042 10.6440902 23.49833679 10.65607071 C19.71690216 10.66328696 15.93551942 10.66100247 12.15408325 10.65581512 C10.33594741 10.65447798 8.51780691 10.65612861 6.69967651 10.66077423 C4.16163599 10.66583563 1.62395141 10.65813482 -0.9140625 10.64697266 C-2.04870438 10.65304535 -2.04870438 10.65304535 -3.20626831 10.65924072 C-8.40819014 10.6167122 -8.40819014 10.6167122 -10.63671875 8.38818359 C-10.98185162 5.69614717 -11.07281462 4.07267993 -9.59448242 1.75228882 C-6.59884804 -0.33497052 -3.52197139 -0.02919603 0 0 Z " fill="#34EAB6" transform="translate(95.63671875,181.61181640625)"/>
  <path d="M0 0 C2.47737795 1.57091349 4.37973366 3.48829706 6.375 5.625 C6.90738281 6.14707031 7.43976563 6.66914062 7.98828125 7.20703125 C10.51735182 9.81332534 11.88520576 11.65346758 13.04296875 15.1484375 C12.99061328 18.62293719 12.34075901 19.55081885 9.9375 22 C9.28652344 22.6703125 8.63554687 23.340625 7.96484375 24.03125 C7.31644531 24.6809375 6.66804688 25.330625 6 26 C5.48566406 26.6084375 4.97132813 27.216875 4.44140625 27.84375 C1.98933367 30.66130765 0.46635245 31.92274113 -3.25390625 32.5390625 C-8.38251632 31.80105605 -10.46775169 29.53994655 -13.9375 25.875 C-14.52595703 25.30523437 -15.11441406 24.73546875 -15.72070312 24.1484375 C-18.33812879 21.47325215 -19.83038829 19.67145254 -20.7578125 16 C-19.64292913 11.58644109 -17.15167957 9.23708625 -13.9375 6.125 C-13.37611328 5.53203125 -12.81472656 4.9390625 -12.23632812 4.328125 C-8.3289546 0.45201046 -5.70559631 -1.20930339 0 0 Z M-4 13 C-4.66 14.32 -5.32 15.64 -6 17 C-4.515 17.99 -4.515 17.99 -3 19 C-2.34 17.68 -1.68 16.36 -1 15 C-1.99 14.34 -2.98 13.68 -4 13 Z " fill="#FF7EB7" transform="translate(350,52)"/>
  <path d="M0 0 C1.010625 0.350625 2.02125 0.70125 3.0625 1.0625 C3.8046875 2.7734375 3.8046875 2.7734375 4.375 4.875 C5.21341061 7.76057273 5.58216824 8.77640076 8.20703125 10.33984375 C9.8188857 10.97189376 11.45122715 11.55471767 13.1015625 12.078125 C15.0625 13.0625 15.0625 13.0625 15.8984375 15.01171875 C16.15673078 18.24038472 15.09287615 19.58797907 13.0625 22.0625 C11.9075 22.51625 10.7525 22.97 9.5625 23.4375 C5.75879252 25.20223625 5.75879252 25.20223625 4.1875 28.6875 C3.81625 29.80125 3.445 30.915 3.0625 32.0625 C2.0625 33.0625 2.0625 33.0625 -0.8125 33.4375 C-1.84375 33.31375 -2.875 33.19 -3.9375 33.0625 C-5.7235458 30.76615539 -6.72331486 28.6693579 -7.6875 25.9375 C-8.93988611 23.6804841 -8.93988611 23.6804841 -12.4375 22.625 C-15.9375 21.0625 -15.9375 21.0625 -17.5 18.625 C-17.9375 16.0625 -17.9375 16.0625 -17.5625 13.9375 C-15.68133502 11.76692502 -14.70021577 11.59819814 -12 10.8125 C-9.33584736 9.95496081 -8.24116363 9.58518235 -6.81640625 7.1328125 C-6.04057656 4.96452438 -6.04057656 4.96452438 -5.5078125 2.8046875 C-5.31960937 2.22976563 -5.13140625 1.65484375 -4.9375 1.0625 C-2.9375 0.0625 -2.9375 0.0625 0 0 Z " fill="#6484FE" transform="translate(107.9375,422.9375)"/>
  <path d="M0 0 C1.134375 0.020625 2.26875 0.04125 3.4375 0.0625 C6.4375 6.8125 6.4375 6.8125 6.4375 9.0625 C9.4075 10.0525 12.3775 11.0425 15.4375 12.0625 C16.0625 14.875 16.0625 14.875 16.4375 18.0625 C13.61196016 22.30080976 11.31569112 22.03965348 6.4375 23.0625 C6.30472656 23.62839844 6.17195313 24.19429688 6.03515625 24.77734375 C5.85855469 25.51082031 5.68195313 26.24429687 5.5 27 C5.32597656 27.73089844 5.15195313 28.46179688 4.97265625 29.21484375 C4.4375 31.0625 4.4375 31.0625 3.4375 32.0625 C0 32.25 0 32.25 -3.5625 32.0625 C-5.5625 30.0625 -5.5625 30.0625 -6.1875 27.1875 C-7.95887535 23.16164692 -9.87247122 22.50108376 -13.78515625 20.82421875 C-15.5625 20.0625 -15.5625 20.0625 -16.5625 19.0625 C-16.9375 16.1875 -16.9375 16.1875 -16.5625 13.0625 C-14.375 11.375 -14.375 11.375 -11.5625 10.0625 C-7.98084678 8.31332052 -6.822064 7.71141 -5.3125 3.9375 C-5.065 2.98875 -4.8175 2.04 -4.5625 1.0625 C-3.5625 0.0625 -3.5625 0.0625 0 0 Z " fill="#6483FE" transform="translate(165.5625,408.9375)"/>
  <path d="M0 0 C3.375 -0.125 3.375 -0.125 7 0 C9 2 9 2 10.1875 5.4375 C12.5616016 10.10383762 14.17510946 10.39170315 19 12 C20 13 20 13 20.375 15.875 C20.189375 17.421875 20.189375 17.421875 20 19 C17.70365539 20.7860458 15.6068579 21.78581486 12.875 22.75 C9.88413627 24.74390916 9.24790548 27.73167611 8 31 C7 32 7 32 3.4375 32.0625 C2.303125 32.041875 1.16875 32.02125 0 32 C-0.1959375 31.38511719 -0.391875 30.77023438 -0.59375 30.13671875 C-2.25223507 25.20744493 -2.25223507 25.20744493 -6.01171875 21.9453125 C-7.43303423 21.5319317 -8.85747203 21.12909983 -10.28515625 20.73828125 C-10.85105469 20.49464844 -11.41695313 20.25101563 -12 20 C-13.125 17 -13.125 17 -13 14 C-12.34 13.01 -11.68 12.02 -11 11 C-9.88625 10.79375 -8.7725 10.5875 -7.625 10.375 C-3.95394473 9.39694792 -3.95394473 9.39694792 -2.65234375 6.875 C-1.66351305 4.60671453 -0.77796606 2.34839443 0 0 Z " fill="#97FFD2" transform="translate(397,39)"/>
  <path d="M0 0 C4.20475482 1.6997945 6.20472472 3.8425204 8 8 C8.64483926 12.97447428 7.91502879 16.33692673 5.265625 20.48828125 C2.45707999 23.84293223 -0.79965986 24.8249504 -5 25.4375 C-9.81389468 24.73547369 -12.75096912 22.4572027 -15.875 18.8125 C-17.47883295 14.80291763 -17.82221909 11.25311513 -17 7 C-12.89950694 -0.30495244 -7.70948353 -0.66880378 0 0 Z " fill="#A281E1" transform="translate(290,282)"/>
  <path d="M0 0 C0.78391113 -0.00287018 1.56782227 -0.00574036 2.37548828 -0.00869751 C4.02962976 -0.01073514 5.6837955 -0.00522631 7.33789062 0.00732422 C9.86643471 0.0233831 12.39338049 0.00746633 14.921875 -0.01171875 C16.53125352 -0.00973626 18.14063105 -0.00589247 19.75 0 C20.5042627 -0.00607269 21.25852539 -0.01214539 22.03564453 -0.0184021 C26.25399676 0.03797789 28.81950287 0.37793461 31.875 3.3984375 C31.61938677 5.7415588 31.28229228 8.07687153 30.875 10.3984375 C27.62391482 12.02398009 24.04604094 11.58284776 20.47265625 11.6015625 C19.22239906 11.61011261 19.22239906 11.61011261 17.94688416 11.61883545 C16.18245718 11.62828794 14.41801254 11.63482042 12.65356445 11.63867188 C9.95167365 11.64838654 7.2505406 11.67941054 4.54882812 11.7109375 C2.83594203 11.71746663 1.12305048 11.72271746 -0.58984375 11.7265625 C-1.3992894 11.7389093 -2.20873505 11.7512561 -3.04270935 11.76397705 C-8.69558321 11.74148045 -8.69558321 11.74148045 -10.8349762 10.03240967 C-12.125 8.3984375 -12.125 8.3984375 -12.5625 5.8984375 C-12.125 3.3984375 -12.125 3.3984375 -10.60546875 1.76708984 C-7.13139182 -0.14980733 -3.86666991 -0.03113119 0 0 Z " fill="#FF99C7" transform="translate(402.125,286.6015625)"/>
  <path d="M0 0 C124.08 0 248.16 0 376 0 C376 0.33 376 0.66 376 1 C375.0367545 1.00358253 375.0367545 1.00358253 374.05404949 1.00723743 C358.34160234 1.06668461 342.62932755 1.14242047 326.91704845 1.23571491 C319.31832973 1.28045134 311.71965556 1.31991526 304.12084961 1.34643555 C297.48844693 1.36959699 290.85618794 1.40319215 284.22389966 1.44870156 C280.72056211 1.47239266 277.21736469 1.4912775 273.7139492 1.49761391 C259.68648076 1.52602851 246.09954219 1.75823037 232.30195618 4.45939636 C229 5 229 5 227 4 C227 3.01 227 2.02 227 1 C152.09 1 77.18 1 0 1 C0 0.67 0 0.34 0 0 Z " fill="#D5BAEB" transform="translate(68,395)"/>
  <path d="M0 0 C0.83208984 -0.00191345 1.66417969 -0.0038269 2.52148438 -0.00579834 C4.27995099 -0.00715874 6.0384277 -0.00347238 7.796875 0.00488281 C10.48981262 0.01558452 13.18208314 0.00498279 15.875 -0.0078125 C17.58333481 -0.00649088 19.2916692 -0.00392843 21 0 C21.80630859 -0.00404846 22.61261719 -0.00809692 23.44335938 -0.01226807 C27.31474692 0.0202358 29.20466426 0.06873451 32.5 2.265625 C32.8125 5.265625 32.8125 5.265625 32.5 8.265625 C29.83929795 10.92632705 27.84520322 10.51479045 24.22607422 10.54351807 C22.93854248 10.53744537 22.93854248 10.53744537 21.625 10.53125 C20.30459717 10.53412018 20.30459717 10.53412018 18.95751953 10.53704834 C17.09472366 10.53841052 15.23191831 10.53471182 13.36914062 10.52636719 C10.51150264 10.51566807 7.65449334 10.52626132 4.796875 10.5390625 C2.98958194 10.53774091 1.18228927 10.53517853 -0.625 10.53125 C-1.48335449 10.53529846 -2.34170898 10.53934692 -3.22607422 10.54351807 C-9.27008255 10.49554245 -9.27008255 10.49554245 -11.5 8.265625 C-11.8125 5.265625 -11.8125 5.265625 -11.5 2.265625 C-7.6478084 -0.30250273 -4.46523118 -0.02241985 0 0 Z " fill="#FF9AC7" transform="translate(401.5,265.734375)"/>
  <path d="M0 0 C1.28753174 0.00607269 1.28753174 0.00607269 2.60107422 0.01226807 C3.92147705 0.00939789 3.92147705 0.00939789 5.26855469 0.00646973 C7.13135056 0.00510755 8.99415591 0.00880625 10.85693359 0.01715088 C13.71457158 0.02785 16.57158088 0.01725675 19.42919922 0.00445557 C21.23649228 0.00577716 23.04378495 0.00833954 24.85107422 0.01226807 C25.70942871 0.0082196 26.5677832 0.00417114 27.45214844 0 C33.49615677 0.04797562 33.49615677 0.04797562 35.72607422 2.27789307 C36.03857422 5.27789307 36.03857422 5.27789307 35.72607422 8.27789307 C31.87388262 10.8460208 28.6913054 10.56593792 24.22607422 10.54351807 C23.39398438 10.54543152 22.56189453 10.54734497 21.70458984 10.54931641 C19.94612322 10.55067681 18.18764652 10.54699045 16.42919922 10.53863525 C13.73626159 10.52793355 11.04399107 10.53853527 8.35107422 10.55133057 C6.64273941 10.55000895 4.93440502 10.5474465 3.22607422 10.54351807 C2.41976562 10.54756653 1.61345703 10.55161499 0.78271484 10.55578613 C-3.0886727 10.52328226 -4.97859004 10.47478356 -8.27392578 8.27789307 C-8.58642578 5.27789307 -8.58642578 5.27789307 -8.27392578 2.27789307 C-5.61322373 -0.38280898 -3.619129 0.02872762 0 0 Z " fill="#FF9DC9" transform="translate(93.27392578125,244.72210693359375)"/>
  <path d="M0 0 C0.83334366 0.00404846 1.66668732 0.00809692 2.52528381 0.01226807 C3.80883507 0.00939789 3.80883507 0.00939789 5.11831665 0.00646973 C6.92983799 0.00510749 8.74136907 0.00880664 10.5528717 0.01715088 C13.32710217 0.02783688 16.10068313 0.01726378 18.87489319 0.00445557 C20.63335816 0.00577741 22.39182273 0.00834032 24.15028381 0.01226807 C24.98160324 0.0082196 25.81292267 0.00417114 26.66943359 0 C30.58963337 0.03192524 32.56955179 0.05480088 35.90419006 2.27789307 C36.27919006 5.27789307 36.27919006 5.27789307 35.90419006 8.27789307 C31.99563435 10.88359687 28.68355269 10.56559474 24.15028381 10.54351807 C23.29362625 10.54543152 22.43696869 10.54734497 21.55435181 10.54931641 C19.74461066 10.5506768 17.9348597 10.54699054 16.12513733 10.53863525 C13.34879257 10.52792048 10.57309297 10.53854211 7.79676819 10.55133057 C6.0396053 10.5500092 4.28244281 10.54744729 2.52528381 10.54351807 C1.69194016 10.54756653 0.8585965 10.55161499 0 10.55578613 C-5.86588263 10.50782038 -5.86588263 10.50782038 -8.09580994 8.27789307 C-8.34580994 5.27789307 -8.34580994 5.27789307 -8.09580994 2.27789307 C-5.46878414 -0.34913273 -3.57666563 0.02924666 0 0 Z " fill="#FF9EC9" transform="translate(93.09580993652344,226.72210693359375)"/>
  <path d="M0 0 C1.28753174 0.00607269 1.28753174 0.00607269 2.60107422 0.01226807 C3.92147705 0.00939789 3.92147705 0.00939789 5.26855469 0.00646973 C7.13135056 0.00510755 8.99415591 0.00880625 10.85693359 0.01715088 C13.71457158 0.02785 16.57158088 0.01725675 19.42919922 0.00445557 C21.23649228 0.00577716 23.04378495 0.00833954 24.85107422 0.01226807 C25.70942871 0.0082196 26.5677832 0.00417114 27.45214844 0 C33.49615677 0.04797562 33.49615677 0.04797562 35.72607422 2.27789307 C35.47607422 5.84039307 35.47607422 5.84039307 34.72607422 9.27789307 C31.47498904 10.90343566 27.89711516 10.46230333 24.32373047 10.48101807 C23.07347328 10.48956818 23.07347328 10.48956818 21.79795837 10.49829102 C20.0335314 10.50774351 18.26908676 10.51427599 16.50463867 10.51812744 C13.80274787 10.5278421 11.10161482 10.55886611 8.39990234 10.59039307 C6.68701624 10.5969222 4.9741247 10.60217302 3.26123047 10.60601807 C2.45178482 10.61836487 1.64233917 10.63071167 0.80836487 10.64343262 C-4.84129385 10.62094882 -4.84129385 10.62094882 -6.99171448 8.91577148 C-8.27392578 7.27789307 -8.27392578 7.27789307 -8.58642578 4.71539307 C-7.91003735 -0.56043666 -4.54147803 0.03604896 0 0 Z " fill="#FF9CC8" transform="translate(398.27392578125,244.72210693359375)"/>
  <path d="M0 0 C1.25025719 -0.00855011 1.25025719 -0.00855011 2.52577209 -0.01727295 C4.29019907 -0.02672544 6.05464371 -0.03325792 7.8190918 -0.03710938 C10.5209826 -0.04682404 13.22211565 -0.07784804 15.92382812 -0.109375 C17.63671422 -0.11590413 19.34960577 -0.12115496 21.0625 -0.125 C21.87194565 -0.1373468 22.6813913 -0.1496936 23.5153656 -0.16241455 C29.16502432 -0.13993075 29.16502432 -0.13993075 31.31544495 1.56524658 C32.59765625 3.203125 32.59765625 3.203125 32.91015625 5.765625 C32.59765625 8.203125 32.59765625 8.203125 30.59765625 10.203125 C27.60803522 10.40318802 24.71303275 10.48285423 21.72265625 10.46875 C20.40225342 10.47162018 20.40225342 10.47162018 19.05517578 10.47454834 C17.19237991 10.47591052 15.32957456 10.47221182 13.46679688 10.46386719 C10.60915889 10.45316807 7.75214959 10.46376132 4.89453125 10.4765625 C3.08723819 10.47524091 1.27994552 10.47267853 -0.52734375 10.46875 C-1.38569824 10.47279846 -2.24405273 10.47684692 -3.12841797 10.48101807 C-9.1724263 10.43304245 -9.1724263 10.43304245 -11.40234375 8.203125 C-11.15234375 4.640625 -11.15234375 4.640625 -10.40234375 1.203125 C-7.15125857 -0.42241759 -3.57338469 0.01871474 0 0 Z " fill="#C8B7EF" transform="translate(96.40234375,208.796875)"/>
  <path d="M0 0 C49.17 0 98.34 0 149 0 C149 0.33 149 0.66 149 1 C148.0367545 1.00358253 148.0367545 1.00358253 147.05404949 1.00723743 C131.34160234 1.06668461 115.62932755 1.14242047 99.91704845 1.23571491 C92.31832973 1.28045134 84.71965556 1.31991526 77.12084961 1.34643555 C70.48844693 1.36959699 63.85618794 1.40319215 57.22389966 1.44870156 C53.72056211 1.47239266 50.21736469 1.4912775 46.7139492 1.49761391 C32.68648076 1.52602851 19.09954219 1.75823037 5.30195618 4.45939636 C2 5 2 5 0 4 C0 2.68 0 1.36 0 0 Z " fill="#E3BEE8" transform="translate(295,395)"/>
  <path d="M0 0 C3.375 0.875 3.375 0.875 5.375 2.875 C5.92521834 8.92740175 5.92521834 8.92740175 4.25 11.8125 C1.43987736 13.40490283 -0.45264724 13.32819325 -3.625 12.875 C-6.4162125 10.89177007 -7.45097224 9.74513879 -8.125 6.375 C-7.12928094 1.39640472 -5.01830468 -0.17304499 0 0 Z " fill="#FBCAE3" transform="translate(102.625,286.125)"/>
  <path d="M0 0 C2.9375 0.875 2.9375 0.875 4.9375 3.875 C4.6133631 7.19740324 4.32973697 8.48276303 1.9375 10.875 C-4.63942308 10.29807692 -4.63942308 10.29807692 -6.0625 8.875 C-6.51628151 3.65651261 -6.51628151 3.65651261 -4.9375 0.9375 C-3.0625 -0.125 -3.0625 -0.125 0 0 Z " fill="#FF80B9" transform="translate(396.0625,221.125)"/>
  <path d="M0 0 C2.9375 0.875 2.9375 0.875 4.9375 3.875 C4.6133631 7.19740324 4.32973697 8.48276303 1.9375 10.875 C-4.63942308 10.29807692 -4.63942308 10.29807692 -6.0625 8.875 C-6.51628151 3.65651261 -6.51628151 3.65651261 -4.9375 0.9375 C-3.0625 -0.125 -3.0625 -0.125 0 0 Z " fill="#FF80B9" transform="translate(396.0625,201.125)"/>
  <path d="M0 0 C2.9375 0.875 2.9375 0.875 4.9375 3.875 C4.6133631 7.19740324 4.32973697 8.48276303 1.9375 10.875 C-1.0625 11.125 -1.0625 11.125 -4.0625 10.875 C-6.0625 8.875 -6.0625 8.875 -6.375 5.9375 C-6.0625 2.875 -6.0625 2.875 -4.9375 0.9375 C-3.0625 -0.125 -3.0625 -0.125 0 0 Z " fill="#FF80B9" transform="translate(396.0625,181.125)"/>
  <path d="M0 0 C2.5625 0.3125 2.5625 0.3125 4.4375 1.5 C5.5625 3.3125 5.5625 3.3125 5.375 5.875 C4.5625 8.3125 4.5625 8.3125 2.5625 10.3125 C0.0625 10.5625 0.0625 10.5625 -2.4375 10.3125 C-4.4375 8.3125 -4.4375 8.3125 -4.6875 5.3125 C-4.37675292 1.58353509 -3.7821044 0.48488518 0 0 Z " fill="#305AE1" transform="translate(132.4375,129.6875)"/>
  <path d="M0 0 C0.625 3.375 0.625 3.375 1 7 C0.34 7.66 -0.32 8.32 -1 9 C-4.625 8.625 -4.625 8.625 -8 8 C-9.32278481 2.58860759 -9.32278481 2.58860759 -7.9375 0.0625 C-5.08906752 -1.49954362 -3.06495097 -0.74921024 0 0 Z " fill="#305AE1" transform="translate(98,131)"/>
  <path d="M0 0 C5.56818182 0.56818182 5.56818182 0.56818182 7 2 C7.1875 4.9375 7.1875 4.9375 7 8 C5 10 5 10 2.5625 10.3125 C0 10 0 10 -1.875 8.8125 C-3 7 -3 7 -2.8125 4.4375 C-2 2 -2 2 0 0 Z " fill="#305AE1" transform="translate(111,130)"/>
  <path d="M0 0 C6.93 0 13.86 0 21 0 C16.83381749 2.08309126 13.28916286 2.63579694 8.75 3.125 C8.00492187 3.21136719 7.25984375 3.29773438 6.4921875 3.38671875 C4.66222154 3.59786867 2.83120121 3.79984545 1 4 C0.67 2.68 0.34 1.36 0 0 Z " fill="#E7DDF7" transform="translate(295,396)"/>
</svg>