<?xml version="1.0" standalone="no"?>
<!DOCTYPE svg PUBLIC "-//W3C//DTD SVG 20010904//EN"
 "http://www.w3.org/TR/2001/REC-SVG-20010904/DTD/svg10.dtd">
<svg version="1.0" xmlns="http://www.w3.org/2000/svg"
 width="512.000000pt" height="512.000000pt" viewBox="0 0 512.000000 512.000000"
 preserveAspectRatio="xMidYMid meet">
<metadata>
Created by potrace 1.14, written by Peter Selinger 2001-2017
</metadata>
<g transform="translate(0.000000,512.000000) scale(0.100000,-0.100000)"
fill="#000000" stroke="none">
<path d="M3379 4533 c-51 -49 -69 -73 -69 -93 0 -20 18 -44 69 -93 38 -37 74
-67 81 -67 19 0 160 141 160 160 0 19 -141 160 -160 160 -7 0 -43 -30 -81 -67z
m106 -73 c18 -20 18 -21 -3 -43 l-22 -21 -22 21 c-21 22 -21 23 -3 43 10 11
21 20 25 20 4 0 15 -9 25 -20z"/>
<path d="M655 3996 c-37 -16 -70 -52 -84 -89 -6 -16 -11 -103 -11 -203 l0
-174 2000 0 2000 0 0 177 c0 158 -2 181 -21 219 -15 31 -32 48 -63 63 -42 21
-44 21 -1917 21 -1539 -1 -1879 -3 -1904 -14z"/>
<path d="M3922 3294 c-26 -18 -29 -56 -6 -78 39 -40 105 4 85 56 -8 22 -29 38
-50 38 -3 0 -17 -7 -29 -16z"/>
<path d="M2108 2815 c-238 -200 -440 -376 -448 -389 -13 -22 -13 -27 4 -45 38
-42 17 -57 528 376 197 167 362 303 368 303 6 0 70 -51 144 -112 668 -566 694
-588 718 -588 23 0 51 36 44 58 -9 27 -882 762 -906 762 -10 0 -214 -164 -452
-365z"/>
<path d="M3922 3094 c-26 -18 -29 -56 -6 -78 39 -40 105 4 85 56 -8 22 -29 38
-50 38 -3 0 -17 -7 -29 -16z"/>
<path d="M3917 2892 c-21 -23 -22 -56 -1 -76 39 -40 105 4 85 56 -15 40 -57
50 -84 20z"/>
<path d="M945 2341 c-58 -30 -89 -81 -89 -147 0 -40 5 -61 23 -84 20 -28 21
-33 8 -48 -21 -25 -39 -88 -32 -112 3 -11 15 -25 26 -31 27 -14 69 13 69 44 0
28 39 67 66 67 32 0 61 -27 68 -65 10 -51 62 -69 88 -31 14 20 8 71 -12 109
-20 37 -20 37 0 69 23 39 26 104 6 152 -33 80 -141 118 -221 77z m117 -98 c22
-20 23 -70 1 -95 -36 -40 -113 -8 -113 47 0 54 71 85 112 48z"/>
<path d="M2197 2292 c-15 -16 -17 -54 -17 -320 l0 -302 215 0 215 0 0 300 c0
287 -1 301 -20 320 -19 19 -33 20 -198 20 -161 0 -181 -2 -195 -18z"/>
<path d="M2793 2290 c-65 -39 -85 -99 -54 -164 46 -94 167 -102 221 -13 40 65
13 154 -55 183 -46 19 -74 18 -112 -6z"/>
<path d="M2177 1153 c-11 -17 -34 -122 -29 -127 7 -8 817 -8 824 -1 3 3 -2 35
-10 70 l-16 65 -382 0 c-211 0 -385 -3 -387 -7z"/>
<path d="M1628 1019 c-10 -5 -18 -16 -18 -24 0 -35 -24 -64 -64 -77 -38 -12
-41 -16 -41 -48 0 -32 3 -36 41 -48 40 -13 64 -42 64 -78 0 -8 11 -19 24 -25
31 -15 66 4 66 34 0 34 20 55 65 69 37 12 40 16 40 48 0 32 -3 36 -40 48 -45
14 -65 35 -65 69 0 12 -9 27 -19 33 -24 12 -31 12 -53 -1z"/>
<path d="M1043 872 c-7 -4 -18 -25 -25 -47 -11 -34 -19 -42 -55 -53 -66 -21
-68 -83 -4 -97 34 -7 52 -26 66 -69 9 -27 15 -31 45 -31 30 0 36 4 45 31 14
43 32 62 66 69 64 14 62 76 -4 97 -36 11 -44 19 -55 53 -13 41 -26 55 -52 55
-8 0 -20 -4 -27 -8z"/>
<path d="M1764 465 c-15 -23 -15 -27 0 -50 l16 -25 780 0 780 0 16 25 c15 23
15 27 0 50 l-16 25 -780 0 -780 0 -16 -25z"/>
</g>
</svg>
