<?xml version="1.0" encoding="UTF-8"?>
<svg version="1.1" xmlns="http://www.w3.org/2000/svg" width="512" height="512">
<path d="M0 0 C0.98672699 -0.00701431 1.97345398 -0.01402863 2.99008179 -0.02125549 C6.15749726 -0.03866982 9.32472591 -0.04510784 12.4921875 -0.046875 C13.57298584 -0.04754974 14.65378418 -0.04822449 15.76733398 -0.04891968 C31.19540038 -0.03358562 46.17243811 0.30282367 61.3671875 3.203125 C62.33301758 3.37473145 63.29884766 3.54633789 64.29394531 3.72314453 C100.75580672 10.25545688 134.42488343 23.87547678 163.3671875 47.203125 C163.97401367 47.68894043 164.58083984 48.17475586 165.20605469 48.67529297 C195.2250419 72.91890568 215.61443323 105.93718519 228.8671875 141.890625 C229.19364258 142.77476074 229.52009766 143.65889648 229.85644531 144.56982422 C231.91660219 150.37183153 233.32202371 156.13744227 234.3671875 162.203125 C222.94240895 165.55899005 211.51664711 168.91357611 200.0546875 172.140625 C199.31557129 172.35162842 198.57645508 172.56263184 197.81494141 172.7800293 C194.90004511 173.59386613 192.41003447 174.203125 189.3671875 174.203125 C189.18768555 173.60701416 189.00818359 173.01090332 188.82324219 172.39672852 C182.48720209 151.67440559 174.63596141 130.58192066 161.3671875 113.203125 C160.96709473 112.66220215 160.56700195 112.1212793 160.15478516 111.56396484 C134.20355961 76.5039664 96.15040332 56.35093975 53.30981445 49.62915039 C40.24466115 47.73761364 27.50707172 46.83141203 14.3046875 46.890625 C13.45545715 46.89244781 12.60622681 46.89427063 11.73126221 46.89614868 C-2.22492303 46.94636491 -15.88735665 47.60539748 -29.6328125 50.203125 C-30.95539063 50.45255859 -30.95539063 50.45255859 -32.3046875 50.70703125 C-64.01824877 56.96628676 -92.63485736 70.33874186 -115.6328125 93.203125 C-116.10315918 93.66944336 -116.57350586 94.13576172 -117.05810547 94.61621094 C-124.78808211 102.39154816 -130.85571746 110.9122289 -136.6328125 120.203125 C-137.30957031 121.255 -137.98632812 122.306875 -138.68359375 123.390625 C-156.99914318 153.34150342 -164.94581933 190.57115481 -167.6328125 225.203125 C-167.71893799 226.30164795 -167.80506348 227.4001709 -167.89379883 228.53198242 C-171.73284405 281.19493139 -166.55289665 338.2877727 -140.6328125 385.203125 C-140.12911133 386.1314917 -140.12911133 386.1314917 -139.61523438 387.07861328 C-119.91582013 423.02910976 -87.56661494 446.07503932 -48.74609375 457.703125 C-37.87510078 460.79337346 -26.8375866 462.78349338 -15.6328125 464.203125 C-14.5804541 464.34669434 -14.5804541 464.34669434 -13.50683594 464.49316406 C-4.71414273 465.54919566 4.14939801 465.44693976 12.9921875 465.453125 C14.29225739 465.45413712 14.29225739 465.45413712 15.61859131 465.45516968 C61.24068719 465.39887988 103.02390581 454.3294986 136.3671875 422.203125 C137.09550781 421.53796875 137.82382812 420.8728125 138.57421875 420.1875 C154.24141195 405.47826141 164.81899012 382.66429138 165.60546875 361.18359375 C166.05565364 337.95284762 161.46680462 317.71670554 145.3828125 300.19140625 C139.69126945 294.35018547 132.83635621 288.56875042 125.3671875 285.203125 C125.35300781 285.77675781 125.33882813 286.35039062 125.32421875 286.94140625 C123.6235396 317.2318809 108.21415769 347.61416486 85.95800781 367.84179688 C65.31145732 385.50987017 38.36447532 392.6456646 11.6171875 392.515625 C9.77858154 392.50716553 9.77858154 392.50716553 7.90283203 392.49853516 C-20.11006593 392.12512844 -46.14848399 382.85849762 -66.8203125 363.453125 C-83.49955807 345.90697477 -89.5625401 324.86698597 -88.97265625 301.08984375 C-88.22115509 284.36693709 -81.61352253 267.91176403 -70.6328125 255.203125 C-70.06304687 254.4915625 -69.49328125 253.78 -68.90625 253.046875 C-54.87413227 236.18523559 -34.22772626 226.59962453 -13.3203125 221.453125 C-12.52826416 221.25444824 -11.73621582 221.05577148 -10.92016602 220.85107422 C3.99736579 217.40003653 19.18343269 216.85929374 34.4296875 216.953125 C35.2678299 216.95489746 36.10597229 216.95666992 36.96951294 216.95849609 C51.17490258 216.99358488 65.2374651 217.65533895 79.3671875 219.203125 C75.75094173 202.64452593 69.74394791 186.37934047 55.2421875 176.515625 C36.46480505 165.26460788 13.88476147 163.29560771 -7.2421875 168.234375 C-22.77383115 172.67198747 -33.36538487 181.08711495 -43.6328125 193.203125 C-48.38151456 191.58671668 -52.21978344 188.9827549 -56.33984375 186.1953125 C-57.06523849 185.70982941 -57.79063324 185.22434631 -58.53800964 184.72415161 C-60.84338083 183.17980253 -63.14437757 181.62907393 -65.4453125 180.078125 C-67.01208504 179.02691921 -68.57913931 177.9761332 -70.14648438 176.92578125 C-73.97854094 174.3564136 -77.80668842 171.78131769 -81.6328125 169.203125 C-79.59479737 156.88485654 -65.39148272 146.39848355 -55.78125 139.3984375 C-27.95608666 119.99677274 7.63957073 114.92617454 40.75805664 120.72485352 C58.57807706 124.27166096 75.53090545 131.25240154 89.3671875 143.203125 C90.09035156 143.78320312 90.81351562 144.36328125 91.55859375 144.9609375 C115.7155844 165.04274886 125.18577274 197.41419376 127.97265625 227.5703125 C128.23149943 231.14931489 128.23149943 231.14931489 129.3671875 234.203125 C131.89490281 235.5030071 134.38418887 236.65142156 136.9921875 237.765625 C166.79921144 251.15896476 192.1170655 275.72104375 204.19091797 306.28857422 C213.6747393 331.37571266 216.73852107 362.06333724 209.3671875 388.203125 C209.14675781 389.00153809 208.92632812 389.79995117 208.69921875 390.62255859 C201.67569413 415.28386296 189.08533171 435.8713654 171.3671875 454.203125 C170.56667969 455.05519531 169.76617187 455.90726562 168.94140625 456.78515625 C134.42216939 492.66030422 82.32189698 511.3535971 33.13061523 512.36425781 C31.27072046 512.38379 29.41075823 512.39755001 27.55078125 512.40625 C26.54468307 512.41330963 25.5385849 512.42036926 24.5019989 512.42764282 C-17.57790205 512.65589396 -17.57790205 512.65589396 -35.6328125 509.203125 C-36.70466797 509.00444824 -37.77652344 508.80577148 -38.88085938 508.60107422 C-81.2356453 500.5372352 -117.44107447 482.84932647 -148.6328125 453.203125 C-149.26445312 452.62433594 -149.89609375 452.04554688 -150.546875 451.44921875 C-174.71634438 428.59704272 -190.71798436 395.42851273 -200.6328125 364.203125 C-200.89690918 363.38150879 -201.16100586 362.55989258 -201.43310547 361.71337891 C-212.07491638 328.14264456 -215.85783085 292.49534684 -215.8828125 257.390625 C-215.88348724 256.52651001 -215.88416199 255.66239502 -215.88485718 254.77209473 C-215.79707693 183.11388222 -198.33166175 112.66975704 -148.6328125 59.203125 C-148.02179688 58.53796875 -147.41078125 57.8728125 -146.78125 57.1875 C-110.06554368 18.75318615 -52.1279345 0.24848307 0 0 Z M-34.6328125 284.203125 C-41.28915414 293.50721143 -43.65071036 301.78151789 -42.6328125 313.203125 C-40.69536386 322.98138925 -35.10737951 329.92846309 -27.3515625 335.984375 C-10.90048855 346.73240998 10.06407949 348.35140858 29.0546875 345.203125 C45.24478879 341.475026 58.3539141 332.94271779 67.19384766 318.82080078 C76.28145951 303.52995852 80.67273466 285.91167232 81.3671875 268.203125 C49.8803081 255.80247044 -10.09236414 257.39821467 -34.6328125 284.203125 Z " fill="#000000" transform="translate(246.6328125,-0.203125)"/>
</svg>
